<svg xmlns="http://www.w3.org/2000/svg" xmlns:xlink="http://www.w3.org/1999/xlink" width="600" height="400" viewBox="0 0 2400 1600">
<defs>
  <clipPath id="clip930">
    <rect x="0" y="0" width="2400" height="1600"></rect>
  </clipPath>
</defs>
<path clip-path="url(#clip930)" d="M0 1600 L2400 1600 L2400 0 L0 0  Z" fill="#ffffff" fill-rule="evenodd" fill-opacity="1"></path>
<defs>
  <clipPath id="clip931">
    <rect x="480" y="0" width="1681" height="1600"></rect>
  </clipPath>
</defs>
<path clip-path="url(#clip930)" d="M193.936 1486.45 L2352.76 1486.45 L2352.76 47.2441 L193.936 47.2441  Z" fill="#ffffff" fill-rule="evenodd" fill-opacity="1"></path>
<defs>
  <clipPath id="clip932">
    <rect x="193" y="47" width="2160" height="1440"></rect>
  </clipPath>
</defs>
<polyline clip-path="url(#clip932)" style="stroke:#000000; stroke-linecap:round; stroke-linejoin:round; stroke-width:2; stroke-opacity:0.1; fill:none" points="250.953,1486.45 250.953,47.2441 "></polyline>
<polyline clip-path="url(#clip932)" style="stroke:#000000; stroke-linecap:round; stroke-linejoin:round; stroke-width:2; stroke-opacity:0.1; fill:none" points="659.094,1486.45 659.094,47.2441 "></polyline>
<polyline clip-path="url(#clip932)" style="stroke:#000000; stroke-linecap:round; stroke-linejoin:round; stroke-width:2; stroke-opacity:0.1; fill:none" points="1067.23,1486.45 1067.23,47.2441 "></polyline>
<polyline clip-path="url(#clip932)" style="stroke:#000000; stroke-linecap:round; stroke-linejoin:round; stroke-width:2; stroke-opacity:0.1; fill:none" points="1475.38,1486.45 1475.38,47.2441 "></polyline>
<polyline clip-path="url(#clip932)" style="stroke:#000000; stroke-linecap:round; stroke-linejoin:round; stroke-width:2; stroke-opacity:0.1; fill:none" points="1883.52,1486.45 1883.52,47.2441 "></polyline>
<polyline clip-path="url(#clip932)" style="stroke:#000000; stroke-linecap:round; stroke-linejoin:round; stroke-width:2; stroke-opacity:0.1; fill:none" points="2291.66,1486.45 2291.66,47.2441 "></polyline>
<polyline clip-path="url(#clip930)" style="stroke:#000000; stroke-linecap:round; stroke-linejoin:round; stroke-width:4; stroke-opacity:1; fill:none" points="193.936,1486.45 2352.76,1486.45 "></polyline>
<polyline clip-path="url(#clip930)" style="stroke:#000000; stroke-linecap:round; stroke-linejoin:round; stroke-width:4; stroke-opacity:1; fill:none" points="250.953,1486.45 250.953,1467.55 "></polyline>
<polyline clip-path="url(#clip930)" style="stroke:#000000; stroke-linecap:round; stroke-linejoin:round; stroke-width:4; stroke-opacity:1; fill:none" points="659.094,1486.45 659.094,1467.55 "></polyline>
<polyline clip-path="url(#clip930)" style="stroke:#000000; stroke-linecap:round; stroke-linejoin:round; stroke-width:4; stroke-opacity:1; fill:none" points="1067.23,1486.45 1067.23,1467.55 "></polyline>
<polyline clip-path="url(#clip930)" style="stroke:#000000; stroke-linecap:round; stroke-linejoin:round; stroke-width:4; stroke-opacity:1; fill:none" points="1475.38,1486.45 1475.38,1467.55 "></polyline>
<polyline clip-path="url(#clip930)" style="stroke:#000000; stroke-linecap:round; stroke-linejoin:round; stroke-width:4; stroke-opacity:1; fill:none" points="1883.52,1486.45 1883.52,1467.55 "></polyline>
<polyline clip-path="url(#clip930)" style="stroke:#000000; stroke-linecap:round; stroke-linejoin:round; stroke-width:4; stroke-opacity:1; fill:none" points="2291.66,1486.45 2291.66,1467.55 "></polyline>
<path clip-path="url(#clip930)" d="M250.953 1517.37 Q247.342 1517.37 245.513 1520.93 Q243.708 1524.47 243.708 1531.6 Q243.708 1538.71 245.513 1542.27 Q247.342 1545.82 250.953 1545.82 Q254.588 1545.82 256.393 1542.27 Q258.222 1538.71 258.222 1531.6 Q258.222 1524.47 256.393 1520.93 Q254.588 1517.37 250.953 1517.37 M250.953 1513.66 Q256.763 1513.66 259.819 1518.27 Q262.898 1522.85 262.898 1531.6 Q262.898 1540.33 259.819 1544.94 Q256.763 1549.52 250.953 1549.52 Q245.143 1549.52 242.064 1544.94 Q239.009 1540.33 239.009 1531.6 Q239.009 1522.85 242.064 1518.27 Q245.143 1513.66 250.953 1513.66 Z" fill="#000000" fill-rule="nonzero" fill-opacity="1"></path><path clip-path="url(#clip930)" d="M618.701 1544.91 L626.34 1544.91 L626.34 1518.55 L618.029 1520.21 L618.029 1515.95 L626.293 1514.29 L630.969 1514.29 L630.969 1544.91 L638.608 1544.91 L638.608 1548.85 L618.701 1548.85 L618.701 1544.91 Z" fill="#000000" fill-rule="nonzero" fill-opacity="1"></path><path clip-path="url(#clip930)" d="M658.052 1517.37 Q654.441 1517.37 652.613 1520.93 Q650.807 1524.47 650.807 1531.6 Q650.807 1538.71 652.613 1542.27 Q654.441 1545.82 658.052 1545.82 Q661.687 1545.82 663.492 1542.27 Q665.321 1538.71 665.321 1531.6 Q665.321 1524.47 663.492 1520.93 Q661.687 1517.37 658.052 1517.37 M658.052 1513.66 Q663.863 1513.66 666.918 1518.27 Q669.997 1522.85 669.997 1531.6 Q669.997 1540.33 666.918 1544.94 Q663.863 1549.52 658.052 1549.52 Q652.242 1549.52 649.164 1544.94 Q646.108 1540.33 646.108 1531.6 Q646.108 1522.85 649.164 1518.27 Q652.242 1513.66 658.052 1513.66 Z" fill="#000000" fill-rule="nonzero" fill-opacity="1"></path><path clip-path="url(#clip930)" d="M688.214 1517.37 Q684.603 1517.37 682.774 1520.93 Q680.969 1524.47 680.969 1531.6 Q680.969 1538.71 682.774 1542.27 Q684.603 1545.82 688.214 1545.82 Q691.849 1545.82 693.654 1542.27 Q695.483 1538.71 695.483 1531.6 Q695.483 1524.47 693.654 1520.93 Q691.849 1517.37 688.214 1517.37 M688.214 1513.66 Q694.024 1513.66 697.08 1518.27 Q700.159 1522.85 700.159 1531.6 Q700.159 1540.33 697.08 1544.94 Q694.024 1549.52 688.214 1549.52 Q682.404 1549.52 679.325 1544.94 Q676.27 1540.33 676.27 1531.6 Q676.27 1522.85 679.325 1518.27 Q682.404 1513.66 688.214 1513.66 Z" fill="#000000" fill-rule="nonzero" fill-opacity="1"></path><path clip-path="url(#clip930)" d="M1030.93 1544.91 L1047.25 1544.91 L1047.25 1548.85 L1025.3 1548.85 L1025.3 1544.91 Q1027.96 1542.16 1032.55 1537.53 Q1037.15 1532.88 1038.33 1531.53 Q1040.58 1529.01 1041.46 1527.27 Q1042.36 1525.51 1042.36 1523.82 Q1042.36 1521.07 1040.42 1519.33 Q1038.5 1517.6 1035.39 1517.6 Q1033.2 1517.6 1030.74 1518.36 Q1028.31 1519.13 1025.53 1520.68 L1025.53 1515.95 Q1028.36 1514.82 1030.81 1514.24 Q1033.27 1513.66 1035.3 1513.66 Q1040.67 1513.66 1043.87 1516.35 Q1047.06 1519.03 1047.06 1523.52 Q1047.06 1525.65 1046.25 1527.57 Q1045.46 1529.47 1043.36 1532.07 Q1042.78 1532.74 1039.68 1535.95 Q1036.58 1539.15 1030.93 1544.91 Z" fill="#000000" fill-rule="nonzero" fill-opacity="1"></path><path clip-path="url(#clip930)" d="M1067.06 1517.37 Q1063.45 1517.37 1061.62 1520.93 Q1059.82 1524.47 1059.82 1531.6 Q1059.82 1538.71 1061.62 1542.27 Q1063.45 1545.82 1067.06 1545.82 Q1070.7 1545.82 1072.5 1542.27 Q1074.33 1538.71 1074.33 1531.6 Q1074.33 1524.47 1072.5 1520.93 Q1070.7 1517.37 1067.06 1517.37 M1067.06 1513.66 Q1072.87 1513.66 1075.93 1518.27 Q1079.01 1522.85 1079.01 1531.6 Q1079.01 1540.33 1075.93 1544.94 Q1072.87 1549.52 1067.06 1549.52 Q1061.25 1549.52 1058.17 1544.94 Q1055.12 1540.33 1055.12 1531.6 Q1055.12 1522.85 1058.17 1518.27 Q1061.25 1513.66 1067.06 1513.66 Z" fill="#000000" fill-rule="nonzero" fill-opacity="1"></path><path clip-path="url(#clip930)" d="M1097.22 1517.37 Q1093.61 1517.37 1091.78 1520.93 Q1089.98 1524.47 1089.98 1531.6 Q1089.98 1538.71 1091.78 1542.27 Q1093.61 1545.82 1097.22 1545.82 Q1100.86 1545.82 1102.66 1542.27 Q1104.49 1538.71 1104.49 1531.6 Q1104.49 1524.47 1102.66 1520.93 Q1100.86 1517.37 1097.22 1517.37 M1097.22 1513.66 Q1103.03 1513.66 1106.09 1518.27 Q1109.17 1522.85 1109.17 1531.6 Q1109.17 1540.33 1106.09 1544.94 Q1103.03 1549.52 1097.22 1549.52 Q1091.41 1549.52 1088.33 1544.94 Q1085.28 1540.33 1085.28 1531.6 Q1085.28 1522.85 1088.33 1518.27 Q1091.41 1513.66 1097.22 1513.66 Z" fill="#000000" fill-rule="nonzero" fill-opacity="1"></path><path clip-path="url(#clip930)" d="M1449.14 1530.21 Q1452.49 1530.93 1454.37 1533.2 Q1456.27 1535.47 1456.27 1538.8 Q1456.27 1543.92 1452.75 1546.72 Q1449.23 1549.52 1442.75 1549.52 Q1440.57 1549.52 1438.26 1549.08 Q1435.97 1548.66 1433.51 1547.81 L1433.51 1543.29 Q1435.46 1544.43 1437.77 1545.01 Q1440.09 1545.58 1442.61 1545.58 Q1447.01 1545.58 1449.3 1543.85 Q1451.61 1542.11 1451.61 1538.8 Q1451.61 1535.75 1449.46 1534.03 Q1447.33 1532.3 1443.51 1532.3 L1439.48 1532.3 L1439.48 1528.45 L1443.7 1528.45 Q1447.15 1528.45 1448.98 1527.09 Q1450.8 1525.7 1450.8 1523.11 Q1450.8 1520.45 1448.91 1519.03 Q1447.03 1517.6 1443.51 1517.6 Q1441.59 1517.6 1439.39 1518.01 Q1437.19 1518.43 1434.55 1519.31 L1434.55 1515.14 Q1437.22 1514.4 1439.53 1514.03 Q1441.87 1513.66 1443.93 1513.66 Q1449.25 1513.66 1452.35 1516.09 Q1455.46 1518.5 1455.46 1522.62 Q1455.46 1525.49 1453.81 1527.48 Q1452.17 1529.45 1449.14 1530.21 Z" fill="#000000" fill-rule="nonzero" fill-opacity="1"></path><path clip-path="url(#clip930)" d="M1475.13 1517.37 Q1471.52 1517.37 1469.69 1520.93 Q1467.89 1524.47 1467.89 1531.6 Q1467.89 1538.71 1469.69 1542.27 Q1471.52 1545.82 1475.13 1545.82 Q1478.77 1545.82 1480.57 1542.27 Q1482.4 1538.71 1482.4 1531.6 Q1482.4 1524.47 1480.57 1520.93 Q1478.77 1517.37 1475.13 1517.37 M1475.13 1513.66 Q1480.94 1513.66 1484 1518.27 Q1487.08 1522.85 1487.08 1531.6 Q1487.08 1540.33 1484 1544.94 Q1480.94 1549.52 1475.13 1549.52 Q1469.32 1549.52 1466.24 1544.94 Q1463.19 1540.33 1463.19 1531.6 Q1463.19 1522.85 1466.24 1518.27 Q1469.32 1513.66 1475.13 1513.66 Z" fill="#000000" fill-rule="nonzero" fill-opacity="1"></path><path clip-path="url(#clip930)" d="M1505.29 1517.37 Q1501.68 1517.37 1499.85 1520.93 Q1498.05 1524.47 1498.05 1531.6 Q1498.05 1538.71 1499.85 1542.27 Q1501.68 1545.82 1505.29 1545.82 Q1508.93 1545.82 1510.73 1542.27 Q1512.56 1538.71 1512.56 1531.6 Q1512.56 1524.47 1510.73 1520.93 Q1508.93 1517.37 1505.29 1517.37 M1505.29 1513.66 Q1511.1 1513.66 1514.16 1518.27 Q1517.24 1522.85 1517.24 1531.6 Q1517.24 1540.33 1514.16 1544.94 Q1511.1 1549.52 1505.29 1549.52 Q1499.48 1549.52 1496.41 1544.94 Q1493.35 1540.33 1493.35 1531.6 Q1493.35 1522.85 1496.41 1518.27 Q1499.48 1513.66 1505.29 1513.66 Z" fill="#000000" fill-rule="nonzero" fill-opacity="1"></path><path clip-path="url(#clip930)" d="M1856.61 1518.36 L1844.8 1536.81 L1856.61 1536.81 L1856.61 1518.36 M1855.38 1514.29 L1861.26 1514.29 L1861.26 1536.81 L1866.19 1536.81 L1866.19 1540.7 L1861.26 1540.7 L1861.26 1548.85 L1856.61 1548.85 L1856.61 1540.7 L1841.01 1540.7 L1841.01 1536.19 L1855.38 1514.29 Z" fill="#000000" fill-rule="nonzero" fill-opacity="1"></path><path clip-path="url(#clip930)" d="M1883.92 1517.37 Q1880.31 1517.37 1878.48 1520.93 Q1876.68 1524.47 1876.68 1531.6 Q1876.68 1538.71 1878.48 1542.27 Q1880.31 1545.82 1883.92 1545.82 Q1887.56 1545.82 1889.36 1542.27 Q1891.19 1538.71 1891.19 1531.6 Q1891.19 1524.47 1889.36 1520.93 Q1887.56 1517.37 1883.92 1517.37 M1883.92 1513.66 Q1889.73 1513.66 1892.79 1518.27 Q1895.87 1522.85 1895.87 1531.6 Q1895.87 1540.33 1892.79 1544.94 Q1889.73 1549.52 1883.92 1549.52 Q1878.11 1549.52 1875.03 1544.94 Q1871.98 1540.33 1871.98 1531.6 Q1871.98 1522.85 1875.03 1518.27 Q1878.11 1513.66 1883.92 1513.66 Z" fill="#000000" fill-rule="nonzero" fill-opacity="1"></path><path clip-path="url(#clip930)" d="M1914.08 1517.37 Q1910.47 1517.37 1908.64 1520.93 Q1906.84 1524.47 1906.84 1531.6 Q1906.84 1538.71 1908.64 1542.27 Q1910.47 1545.82 1914.08 1545.82 Q1917.72 1545.82 1919.52 1542.27 Q1921.35 1538.71 1921.35 1531.6 Q1921.35 1524.47 1919.52 1520.93 Q1917.72 1517.37 1914.08 1517.37 M1914.08 1513.66 Q1919.89 1513.66 1922.95 1518.27 Q1926.03 1522.85 1926.03 1531.6 Q1926.03 1540.33 1922.95 1544.94 Q1919.89 1549.52 1914.08 1549.52 Q1908.27 1549.52 1905.19 1544.94 Q1902.14 1540.33 1902.14 1531.6 Q1902.14 1522.85 1905.19 1518.27 Q1908.27 1513.66 1914.08 1513.66 Z" fill="#000000" fill-rule="nonzero" fill-opacity="1"></path><path clip-path="url(#clip930)" d="M2251.28 1514.29 L2269.63 1514.29 L2269.63 1518.22 L2255.56 1518.22 L2255.56 1526.7 Q2256.58 1526.35 2257.59 1526.19 Q2258.61 1526 2259.63 1526 Q2265.42 1526 2268.8 1529.17 Q2272.18 1532.34 2272.18 1537.76 Q2272.18 1543.34 2268.71 1546.44 Q2265.23 1549.52 2258.91 1549.52 Q2256.74 1549.52 2254.47 1549.15 Q2252.22 1548.78 2249.82 1548.04 L2249.82 1543.34 Q2251.9 1544.47 2254.12 1545.03 Q2256.34 1545.58 2258.82 1545.58 Q2262.83 1545.58 2265.16 1543.48 Q2267.5 1541.37 2267.5 1537.76 Q2267.5 1534.15 2265.16 1532.04 Q2262.83 1529.94 2258.82 1529.94 Q2256.95 1529.94 2255.07 1530.35 Q2253.22 1530.77 2251.28 1531.65 L2251.28 1514.29 Z" fill="#000000" fill-rule="nonzero" fill-opacity="1"></path><path clip-path="url(#clip930)" d="M2291.39 1517.37 Q2287.78 1517.37 2285.95 1520.93 Q2284.15 1524.47 2284.15 1531.6 Q2284.15 1538.71 2285.95 1542.27 Q2287.78 1545.82 2291.39 1545.82 Q2295.03 1545.82 2296.83 1542.27 Q2298.66 1538.71 2298.66 1531.6 Q2298.66 1524.47 2296.83 1520.93 Q2295.03 1517.37 2291.39 1517.37 M2291.39 1513.66 Q2297.2 1513.66 2300.26 1518.27 Q2303.34 1522.85 2303.34 1531.6 Q2303.34 1540.33 2300.26 1544.94 Q2297.2 1549.52 2291.39 1549.52 Q2285.58 1549.52 2282.5 1544.94 Q2279.45 1540.33 2279.45 1531.6 Q2279.45 1522.85 2282.5 1518.27 Q2285.58 1513.66 2291.39 1513.66 Z" fill="#000000" fill-rule="nonzero" fill-opacity="1"></path><path clip-path="url(#clip930)" d="M2321.55 1517.37 Q2317.94 1517.37 2316.11 1520.93 Q2314.31 1524.47 2314.31 1531.6 Q2314.31 1538.71 2316.11 1542.27 Q2317.94 1545.82 2321.55 1545.82 Q2325.19 1545.82 2326.99 1542.27 Q2328.82 1538.71 2328.82 1531.6 Q2328.82 1524.47 2326.99 1520.93 Q2325.19 1517.37 2321.55 1517.37 M2321.55 1513.66 Q2327.36 1513.66 2330.42 1518.27 Q2333.5 1522.85 2333.5 1531.6 Q2333.5 1540.33 2330.42 1544.94 Q2327.36 1549.52 2321.55 1549.52 Q2315.74 1549.52 2312.66 1544.94 Q2309.61 1540.33 2309.61 1531.6 Q2309.61 1522.85 2312.66 1518.27 Q2315.74 1513.66 2321.55 1513.66 Z" fill="#000000" fill-rule="nonzero" fill-opacity="1"></path><polyline clip-path="url(#clip932)" style="stroke:#000000; stroke-linecap:round; stroke-linejoin:round; stroke-width:2; stroke-opacity:0.1; fill:none" points="193.936,1345.4 2352.76,1345.4 "></polyline>
<polyline clip-path="url(#clip932)" style="stroke:#000000; stroke-linecap:round; stroke-linejoin:round; stroke-width:2; stroke-opacity:0.1; fill:none" points="193.936,1152.55 2352.76,1152.55 "></polyline>
<polyline clip-path="url(#clip932)" style="stroke:#000000; stroke-linecap:round; stroke-linejoin:round; stroke-width:2; stroke-opacity:0.1; fill:none" points="193.936,959.699 2352.76,959.699 "></polyline>
<polyline clip-path="url(#clip932)" style="stroke:#000000; stroke-linecap:round; stroke-linejoin:round; stroke-width:2; stroke-opacity:0.1; fill:none" points="193.936,766.846 2352.76,766.846 "></polyline>
<polyline clip-path="url(#clip932)" style="stroke:#000000; stroke-linecap:round; stroke-linejoin:round; stroke-width:2; stroke-opacity:0.1; fill:none" points="193.936,573.993 2352.76,573.993 "></polyline>
<polyline clip-path="url(#clip932)" style="stroke:#000000; stroke-linecap:round; stroke-linejoin:round; stroke-width:2; stroke-opacity:0.1; fill:none" points="193.936,381.141 2352.76,381.141 "></polyline>
<polyline clip-path="url(#clip932)" style="stroke:#000000; stroke-linecap:round; stroke-linejoin:round; stroke-width:2; stroke-opacity:0.1; fill:none" points="193.936,188.288 2352.76,188.288 "></polyline>
<polyline clip-path="url(#clip930)" style="stroke:#000000; stroke-linecap:round; stroke-linejoin:round; stroke-width:4; stroke-opacity:1; fill:none" points="193.936,1486.45 193.936,47.2441 "></polyline>
<polyline clip-path="url(#clip930)" style="stroke:#000000; stroke-linecap:round; stroke-linejoin:round; stroke-width:4; stroke-opacity:1; fill:none" points="193.936,1345.4 212.834,1345.4 "></polyline>
<polyline clip-path="url(#clip930)" style="stroke:#000000; stroke-linecap:round; stroke-linejoin:round; stroke-width:4; stroke-opacity:1; fill:none" points="193.936,1152.55 212.834,1152.55 "></polyline>
<polyline clip-path="url(#clip930)" style="stroke:#000000; stroke-linecap:round; stroke-linejoin:round; stroke-width:4; stroke-opacity:1; fill:none" points="193.936,959.699 212.834,959.699 "></polyline>
<polyline clip-path="url(#clip930)" style="stroke:#000000; stroke-linecap:round; stroke-linejoin:round; stroke-width:4; stroke-opacity:1; fill:none" points="193.936,766.846 212.834,766.846 "></polyline>
<polyline clip-path="url(#clip930)" style="stroke:#000000; stroke-linecap:round; stroke-linejoin:round; stroke-width:4; stroke-opacity:1; fill:none" points="193.936,573.993 212.834,573.993 "></polyline>
<polyline clip-path="url(#clip930)" style="stroke:#000000; stroke-linecap:round; stroke-linejoin:round; stroke-width:4; stroke-opacity:1; fill:none" points="193.936,381.141 212.834,381.141 "></polyline>
<polyline clip-path="url(#clip930)" style="stroke:#000000; stroke-linecap:round; stroke-linejoin:round; stroke-width:4; stroke-opacity:1; fill:none" points="193.936,188.288 212.834,188.288 "></polyline>
<path clip-path="url(#clip930)" d="M51.9875 1345.86 L81.6633 1345.86 L81.6633 1349.79 L51.9875 1349.79 L51.9875 1345.86 Z" fill="#000000" fill-rule="nonzero" fill-opacity="1"></path><path clip-path="url(#clip930)" d="M92.566 1358.75 L100.205 1358.75 L100.205 1332.38 L91.8947 1334.05 L91.8947 1329.79 L100.159 1328.12 L104.834 1328.12 L104.834 1358.75 L112.473 1358.75 L112.473 1362.68 L92.566 1362.68 L92.566 1358.75 Z" fill="#000000" fill-rule="nonzero" fill-opacity="1"></path><path clip-path="url(#clip930)" d="M121.918 1356.8 L126.802 1356.8 L126.802 1362.68 L121.918 1362.68 L121.918 1356.8 Z" fill="#000000" fill-rule="nonzero" fill-opacity="1"></path><path clip-path="url(#clip930)" d="M137.033 1328.12 L155.39 1328.12 L155.39 1332.06 L141.316 1332.06 L141.316 1340.53 Q142.334 1340.18 143.353 1340.02 Q144.371 1339.84 145.39 1339.84 Q151.177 1339.84 154.556 1343.01 Q157.936 1346.18 157.936 1351.6 Q157.936 1357.17 154.464 1360.28 Q150.992 1363.36 144.672 1363.36 Q142.496 1363.36 140.228 1362.98 Q137.982 1362.61 135.575 1361.87 L135.575 1357.17 Q137.658 1358.31 139.881 1358.86 Q142.103 1359.42 144.58 1359.42 Q148.584 1359.42 150.922 1357.31 Q153.26 1355.21 153.26 1351.6 Q153.26 1347.98 150.922 1345.88 Q148.584 1343.77 144.58 1343.77 Q142.705 1343.77 140.83 1344.19 Q138.978 1344.61 137.033 1345.48 L137.033 1328.12 Z" fill="#000000" fill-rule="nonzero" fill-opacity="1"></path><path clip-path="url(#clip930)" d="M50.9921 1153 L80.6679 1153 L80.6679 1156.94 L50.9921 1156.94 L50.9921 1153 Z" fill="#000000" fill-rule="nonzero" fill-opacity="1"></path><path clip-path="url(#clip930)" d="M91.5706 1165.9 L99.2095 1165.9 L99.2095 1139.53 L90.8993 1141.2 L90.8993 1136.94 L99.1632 1135.27 L103.839 1135.27 L103.839 1165.9 L111.478 1165.9 L111.478 1169.83 L91.5706 1169.83 L91.5706 1165.9 Z" fill="#000000" fill-rule="nonzero" fill-opacity="1"></path><path clip-path="url(#clip930)" d="M120.922 1163.95 L125.807 1163.95 L125.807 1169.83 L120.922 1169.83 L120.922 1163.95 Z" fill="#000000" fill-rule="nonzero" fill-opacity="1"></path><path clip-path="url(#clip930)" d="M145.992 1138.35 Q142.381 1138.35 140.552 1141.91 Q138.746 1145.46 138.746 1152.59 Q138.746 1159.69 140.552 1163.26 Q142.381 1166.8 145.992 1166.8 Q149.626 1166.8 151.431 1163.26 Q153.26 1159.69 153.26 1152.59 Q153.26 1145.46 151.431 1141.91 Q149.626 1138.35 145.992 1138.35 M145.992 1134.65 Q151.802 1134.65 154.857 1139.25 Q157.936 1143.84 157.936 1152.59 Q157.936 1161.31 154.857 1165.92 Q151.802 1170.5 145.992 1170.5 Q140.181 1170.5 137.103 1165.92 Q134.047 1161.31 134.047 1152.59 Q134.047 1143.84 137.103 1139.25 Q140.181 1134.65 145.992 1134.65 Z" fill="#000000" fill-rule="nonzero" fill-opacity="1"></path><path clip-path="url(#clip930)" d="M51.9875 960.15 L81.6633 960.15 L81.6633 964.085 L51.9875 964.085 L51.9875 960.15 Z" fill="#000000" fill-rule="nonzero" fill-opacity="1"></path><path clip-path="url(#clip930)" d="M101.756 945.497 Q98.1447 945.497 96.316 949.062 Q94.5104 952.604 94.5104 959.733 Q94.5104 966.84 96.316 970.405 Q98.1447 973.946 101.756 973.946 Q105.39 973.946 107.196 970.405 Q109.024 966.84 109.024 959.733 Q109.024 952.604 107.196 949.062 Q105.39 945.497 101.756 945.497 M101.756 941.794 Q107.566 941.794 110.621 946.4 Q113.7 950.983 113.7 959.733 Q113.7 968.46 110.621 973.067 Q107.566 977.65 101.756 977.65 Q95.9456 977.65 92.8669 973.067 Q89.8114 968.46 89.8114 959.733 Q89.8114 950.983 92.8669 946.4 Q95.9456 941.794 101.756 941.794 Z" fill="#000000" fill-rule="nonzero" fill-opacity="1"></path><path clip-path="url(#clip930)" d="M121.918 971.099 L126.802 971.099 L126.802 976.979 L121.918 976.979 L121.918 971.099 Z" fill="#000000" fill-rule="nonzero" fill-opacity="1"></path><path clip-path="url(#clip930)" d="M137.033 942.419 L155.39 942.419 L155.39 946.354 L141.316 946.354 L141.316 954.826 Q142.334 954.479 143.353 954.317 Q144.371 954.132 145.39 954.132 Q151.177 954.132 154.556 957.303 Q157.936 960.474 157.936 965.891 Q157.936 971.469 154.464 974.571 Q150.992 977.65 144.672 977.65 Q142.496 977.65 140.228 977.28 Q137.982 976.909 135.575 976.168 L135.575 971.469 Q137.658 972.604 139.881 973.159 Q142.103 973.715 144.58 973.715 Q148.584 973.715 150.922 971.608 Q153.26 969.502 153.26 965.891 Q153.26 962.28 150.922 960.173 Q148.584 958.067 144.58 958.067 Q142.705 958.067 140.83 958.483 Q138.978 958.9 137.033 959.78 L137.033 942.419 Z" fill="#000000" fill-rule="nonzero" fill-opacity="1"></path><path clip-path="url(#clip930)" d="M100.76 752.645 Q97.1493 752.645 95.3206 756.209 Q93.515 759.751 93.515 766.881 Q93.515 773.987 95.3206 777.552 Q97.1493 781.094 100.76 781.094 Q104.395 781.094 106.2 777.552 Q108.029 773.987 108.029 766.881 Q108.029 759.751 106.2 756.209 Q104.395 752.645 100.76 752.645 M100.76 748.941 Q106.571 748.941 109.626 753.547 Q112.705 758.131 112.705 766.881 Q112.705 775.608 109.626 780.214 Q106.571 784.797 100.76 784.797 Q94.9502 784.797 91.8715 780.214 Q88.816 775.608 88.816 766.881 Q88.816 758.131 91.8715 753.547 Q94.9502 748.941 100.76 748.941 Z" fill="#000000" fill-rule="nonzero" fill-opacity="1"></path><path clip-path="url(#clip930)" d="M120.922 778.246 L125.807 778.246 L125.807 784.126 L120.922 784.126 L120.922 778.246 Z" fill="#000000" fill-rule="nonzero" fill-opacity="1"></path><path clip-path="url(#clip930)" d="M145.992 752.645 Q142.381 752.645 140.552 756.209 Q138.746 759.751 138.746 766.881 Q138.746 773.987 140.552 777.552 Q142.381 781.094 145.992 781.094 Q149.626 781.094 151.431 777.552 Q153.26 773.987 153.26 766.881 Q153.26 759.751 151.431 756.209 Q149.626 752.645 145.992 752.645 M145.992 748.941 Q151.802 748.941 154.857 753.547 Q157.936 758.131 157.936 766.881 Q157.936 775.608 154.857 780.214 Q151.802 784.797 145.992 784.797 Q140.181 784.797 137.103 780.214 Q134.047 775.608 134.047 766.881 Q134.047 758.131 137.103 753.547 Q140.181 748.941 145.992 748.941 Z" fill="#000000" fill-rule="nonzero" fill-opacity="1"></path><path clip-path="url(#clip930)" d="M101.756 559.792 Q98.1447 559.792 96.316 563.357 Q94.5104 566.898 94.5104 574.028 Q94.5104 581.134 96.316 584.699 Q98.1447 588.241 101.756 588.241 Q105.39 588.241 107.196 584.699 Q109.024 581.134 109.024 574.028 Q109.024 566.898 107.196 563.357 Q105.39 559.792 101.756 559.792 M101.756 556.088 Q107.566 556.088 110.621 560.695 Q113.7 565.278 113.7 574.028 Q113.7 582.755 110.621 587.361 Q107.566 591.945 101.756 591.945 Q95.9456 591.945 92.8669 587.361 Q89.8114 582.755 89.8114 574.028 Q89.8114 565.278 92.8669 560.695 Q95.9456 556.088 101.756 556.088 Z" fill="#000000" fill-rule="nonzero" fill-opacity="1"></path><path clip-path="url(#clip930)" d="M121.918 585.394 L126.802 585.394 L126.802 591.273 L121.918 591.273 L121.918 585.394 Z" fill="#000000" fill-rule="nonzero" fill-opacity="1"></path><path clip-path="url(#clip930)" d="M137.033 556.713 L155.39 556.713 L155.39 560.648 L141.316 560.648 L141.316 569.121 Q142.334 568.773 143.353 568.611 Q144.371 568.426 145.39 568.426 Q151.177 568.426 154.556 571.598 Q157.936 574.769 157.936 580.185 Q157.936 585.764 154.464 588.866 Q150.992 591.945 144.672 591.945 Q142.496 591.945 140.228 591.574 Q137.982 591.204 135.575 590.463 L135.575 585.764 Q137.658 586.898 139.881 587.454 Q142.103 588.009 144.58 588.009 Q148.584 588.009 150.922 585.903 Q153.26 583.797 153.26 580.185 Q153.26 576.574 150.922 574.468 Q148.584 572.361 144.58 572.361 Q142.705 572.361 140.83 572.778 Q138.978 573.195 137.033 574.074 L137.033 556.713 Z" fill="#000000" fill-rule="nonzero" fill-opacity="1"></path><path clip-path="url(#clip930)" d="M91.5706 394.486 L99.2095 394.486 L99.2095 368.12 L90.8993 369.787 L90.8993 365.527 L99.1632 363.861 L103.839 363.861 L103.839 394.486 L111.478 394.486 L111.478 398.421 L91.5706 398.421 L91.5706 394.486 Z" fill="#000000" fill-rule="nonzero" fill-opacity="1"></path><path clip-path="url(#clip930)" d="M120.922 392.541 L125.807 392.541 L125.807 398.421 L120.922 398.421 L120.922 392.541 Z" fill="#000000" fill-rule="nonzero" fill-opacity="1"></path><path clip-path="url(#clip930)" d="M145.992 366.939 Q142.381 366.939 140.552 370.504 Q138.746 374.046 138.746 381.175 Q138.746 388.282 140.552 391.847 Q142.381 395.388 145.992 395.388 Q149.626 395.388 151.431 391.847 Q153.26 388.282 153.26 381.175 Q153.26 374.046 151.431 370.504 Q149.626 366.939 145.992 366.939 M145.992 363.236 Q151.802 363.236 154.857 367.842 Q157.936 372.425 157.936 381.175 Q157.936 389.902 154.857 394.509 Q151.802 399.092 145.992 399.092 Q140.181 399.092 137.103 394.509 Q134.047 389.902 134.047 381.175 Q134.047 372.425 137.103 367.842 Q140.181 363.236 145.992 363.236 Z" fill="#000000" fill-rule="nonzero" fill-opacity="1"></path><path clip-path="url(#clip930)" d="M92.566 201.633 L100.205 201.633 L100.205 175.267 L91.8947 176.934 L91.8947 172.675 L100.159 171.008 L104.834 171.008 L104.834 201.633 L112.473 201.633 L112.473 205.568 L92.566 205.568 L92.566 201.633 Z" fill="#000000" fill-rule="nonzero" fill-opacity="1"></path><path clip-path="url(#clip930)" d="M121.918 199.688 L126.802 199.688 L126.802 205.568 L121.918 205.568 L121.918 199.688 Z" fill="#000000" fill-rule="nonzero" fill-opacity="1"></path><path clip-path="url(#clip930)" d="M137.033 171.008 L155.39 171.008 L155.39 174.943 L141.316 174.943 L141.316 183.415 Q142.334 183.068 143.353 182.906 Q144.371 182.721 145.39 182.721 Q151.177 182.721 154.556 185.892 Q157.936 189.063 157.936 194.48 Q157.936 200.059 154.464 203.161 Q150.992 206.239 144.672 206.239 Q142.496 206.239 140.228 205.869 Q137.982 205.499 135.575 204.758 L135.575 200.059 Q137.658 201.193 139.881 201.749 Q142.103 202.304 144.58 202.304 Q148.584 202.304 150.922 200.198 Q153.26 198.091 153.26 194.48 Q153.26 190.869 150.922 188.763 Q148.584 186.656 144.58 186.656 Q142.705 186.656 140.83 187.073 Q138.978 187.489 137.033 188.369 L137.033 171.008 Z" fill="#000000" fill-rule="nonzero" fill-opacity="1"></path><polyline clip-path="url(#clip932)" style="stroke:#009af9; stroke-linecap:round; stroke-linejoin:round; stroke-width:4; stroke-opacity:1; fill:none" points="255.035,746.654 259.116,726.48 263.197,706.343 267.279,686.261 271.36,666.253 275.442,646.336 279.523,626.53 283.605,606.851 287.686,587.319 291.767,567.95 295.849,548.762 299.93,529.773 304.012,510.999 308.093,492.458 312.174,474.165 316.256,456.139 320.337,438.393 324.419,420.945 328.5,403.809 332.581,387 336.663,370.534 340.744,354.425 344.826,338.686 348.907,323.331 352.988,308.372 357.07,293.824 361.151,279.697 365.233,266.004 369.314,252.756 373.396,239.963 377.477,227.635 381.558,215.784 385.64,204.416 389.721,193.543 393.803,183.17 397.884,173.307 401.965,163.959 406.047,155.134 410.128,146.837 414.21,139.074 418.291,131.849 422.372,125.166 426.454,119.03 430.535,113.442 434.617,108.406 438.698,103.922 442.779,99.9932 446.861,96.6187 450.942,93.7988 455.024,91.533 459.105,89.8199 463.186,88.6578 467.268,88.0443 471.349,87.9763 475.431,88.4502 479.512,89.462 483.594,91.007 487.675,93.0797 491.756,95.6744 495.838,98.7848 499.919,102.404 504.001,106.524 508.082,111.138 512.163,116.236 516.245,121.811 520.326,127.852 524.408,134.349 528.489,141.293 532.57,148.672 536.652,156.475 540.733,164.691 544.815,173.307 548.896,182.31 552.977,191.69 557.059,201.431 561.14,211.52 565.222,221.944 569.303,232.689 573.384,243.739 577.466,255.081 581.547,266.7 585.629,278.58 589.71,290.705 593.792,303.061 597.873,315.631 601.954,328.4 606.036,341.352 610.117,354.47 614.199,367.738 618.28,381.141 622.361,394.66 626.443,408.281 630.524,421.986 634.606,435.76 638.687,449.585 642.768,463.446 646.85,477.326 650.931,491.209 655.013,505.079 659.094,518.919 663.175,532.715 667.257,546.45 671.338,560.108 675.42,573.675 679.501,587.136 683.583,600.475 687.664,613.678 691.745,626.73 695.827,639.618 699.908,652.328 703.99,664.846 708.071,677.16 712.152,689.256 716.234,701.122 720.315,712.746 724.397,724.116 728.478,735.222 732.559,746.053 736.641,756.597 740.722,766.846 744.804,776.79 748.885,786.419 752.966,795.726 757.048,804.702 761.129,813.339 765.211,821.631 769.292,829.572 773.373,837.154 777.455,844.373 781.536,851.224 785.618,857.702 789.699,863.803 793.781,869.525 797.862,874.863 801.943,879.816 806.025,884.383 810.106,888.561 814.188,892.351 818.269,895.752 822.35,898.765 826.432,901.39 830.513,903.63 834.595,905.486 838.676,906.962 842.757,908.059 846.839,908.782 850.92,909.135 855.002,909.123 859.083,908.751 863.164,908.024 867.246,906.949 871.327,905.533 875.409,903.782 879.49,901.704 883.571,899.307 887.653,896.6 891.734,893.592 895.816,890.292 899.897,886.709 903.979,882.854 908.06,878.737 912.141,874.368 916.223,869.76 920.304,864.924 924.386,859.871 928.467,854.613 932.548,849.163 936.63,843.534 940.711,837.738 944.793,831.788 948.874,825.698 952.955,819.481 957.037,813.151 961.118,806.721 965.2,800.207 969.281,793.62 973.362,786.977 977.444,780.291 981.525,773.575 985.607,766.846 989.688,760.117 993.77,753.401 997.851,746.715 1001.93,740.072 1006.01,733.485 1010.1,726.971 1014.18,720.541 1018.26,714.211 1022.34,707.994 1026.42,701.904 1030.5,695.954 1034.58,690.158 1038.66,684.529 1042.75,679.079 1046.83,673.821 1050.91,668.768 1054.99,663.932 1059.07,659.324 1063.15,654.955 1067.23,650.838 1071.32,646.983 1075.4,643.4 1079.48,640.1 1083.56,637.092 1087.64,634.385 1091.72,631.988 1095.8,629.91 1099.89,628.159 1103.97,626.743 1108.05,625.668 1112.13,624.941 1116.21,624.569 1120.29,624.557 1124.37,624.91 1128.46,625.633 1132.54,626.73 1136.62,628.205 1140.7,630.062 1144.78,632.301 1148.86,634.927 1152.94,637.94 1157.03,641.341 1161.11,645.131 1165.19,649.309 1169.27,653.876 1173.35,658.829 1177.43,664.167 1181.51,669.889 1185.6,675.99 1189.68,682.468 1193.76,689.319 1197.84,696.538 1201.92,704.12 1206,712.061 1210.08,720.353 1214.17,728.99 1218.25,737.966 1222.33,747.273 1226.41,756.902 1230.49,766.846 1234.57,777.095 1238.65,787.639 1242.74,798.47 1246.82,809.576 1250.9,820.946 1254.98,832.57 1259.06,844.436 1263.14,856.532 1267.22,868.846 1271.31,881.364 1275.39,894.074 1279.47,906.962 1283.55,920.014 1287.63,933.217 1291.71,946.556 1295.79,960.017 1299.88,973.584 1303.96,987.242 1308.04,1000.98 1312.12,1014.77 1316.2,1028.61 1320.28,1042.48 1324.36,1056.37 1328.44,1070.25 1332.53,1084.11 1336.61,1097.93 1340.69,1111.71 1344.77,1125.41 1348.85,1139.03 1352.93,1152.55 1357.01,1165.95 1361.1,1179.22 1365.18,1192.34 1369.26,1205.29 1373.34,1218.06 1377.42,1230.63 1381.5,1242.99 1385.58,1255.11 1389.67,1266.99 1393.75,1278.61 1397.83,1289.95 1401.91,1301 1405.99,1311.75 1410.07,1322.17 1414.15,1332.26 1418.24,1342 1422.32,1351.38 1426.4,1360.39 1430.48,1369 1434.56,1377.22 1438.64,1385.02 1442.72,1392.4 1446.81,1399.34 1450.89,1405.84 1454.97,1411.88 1459.05,1417.46 1463.13,1422.55 1467.21,1427.17 1471.29,1431.29 1475.38,1434.91 1479.46,1438.02 1483.54,1440.61 1487.62,1442.69 1491.7,1444.23 1495.78,1445.24 1499.86,1445.72 1503.95,1445.65 1508.03,1445.03 1512.11,1443.87 1516.19,1442.16 1520.27,1439.89 1524.35,1437.07 1528.43,1433.7 1532.52,1429.77 1536.6,1425.29 1540.68,1420.25 1544.76,1414.66 1548.84,1408.53 1552.92,1401.84 1557,1394.62 1561.09,1386.85 1565.17,1378.56 1569.25,1369.73 1573.33,1360.39 1577.41,1350.52 1581.49,1340.15 1585.57,1329.28 1589.66,1317.91 1593.74,1306.06 1597.82,1293.73 1601.9,1280.94 1605.98,1267.69 1610.06,1253.99 1614.14,1239.87 1618.22,1225.32 1622.31,1210.36 1626.39,1195.01 1630.47,1179.27 1634.55,1163.16 1638.63,1146.69 1642.71,1129.88 1646.79,1112.75 1650.88,1095.3 1654.96,1077.55 1659.04,1059.53 1663.12,1041.23 1667.2,1022.69 1671.28,1003.92 1675.36,984.93 1679.45,965.742 1683.53,946.373 1687.61,926.841 1691.69,907.162 1695.77,887.356 1699.85,867.439 1703.93,847.431 1708.02,827.349 1712.1,807.212 1716.18,787.038 1720.26,766.846 1724.34,746.654 1728.42,726.48 1732.5,706.343 1736.59,686.261 1740.67,666.253 1744.75,646.336 1748.83,626.53 1752.91,606.851 1756.99,587.319 1761.07,567.95 1765.16,548.762 1769.24,529.773 1773.32,510.999 1777.4,492.458 1781.48,474.165 1785.56,456.139 1789.64,438.393 1793.73,420.945 1797.81,403.809 1801.89,387 1805.97,370.534 1810.05,354.425 1814.13,338.686 1818.21,323.331 1822.3,308.372 1826.38,293.824 1830.46,279.697 1834.54,266.004 1838.62,252.756 1842.7,239.963 1846.78,227.635 1850.87,215.784 1854.95,204.416 1859.03,193.543 1863.11,183.17 1867.19,173.307 1871.27,163.959 1875.35,155.134 1879.44,146.837 1883.52,139.074 1887.6,131.849 1891.68,125.166 1895.76,119.03 1899.84,113.442 1903.92,108.406 1908,103.922 1912.09,99.9932 1916.17,96.6187 1920.25,93.7988 1924.33,91.533 1928.41,89.8199 1932.49,88.6578 1936.57,88.0443 1940.66,87.9763 1944.74,88.4502 1948.82,89.462 1952.9,91.007 1956.98,93.0797 1961.06,95.6744 1965.14,98.7848 1969.23,102.404 1973.31,106.524 1977.39,111.138 1981.47,116.236 1985.55,121.811 1989.63,127.852 1993.71,134.349 1997.8,141.293 2001.88,148.672 2005.96,156.475 2010.04,164.691 2014.12,173.307 2018.2,182.31 2022.28,191.69 2026.37,201.431 2030.45,211.52 2034.53,221.944 2038.61,232.689 2042.69,243.739 2046.77,255.081 2050.85,266.7 2054.94,278.58 2059.02,290.705 2063.1,303.061 2067.18,315.631 2071.26,328.4 2075.34,341.352 2079.42,354.47 2083.51,367.738 2087.59,381.141 2091.67,394.66 2095.75,408.281 2099.83,421.986 2103.91,435.76 2107.99,449.585 2112.08,463.446 2116.16,477.326 2120.24,491.209 2124.32,505.079 2128.4,518.919 2132.48,532.715 2136.56,546.45 2140.65,560.108 2144.73,573.675 2148.81,587.136 2152.89,600.475 2156.97,613.678 2161.05,626.73 2165.13,639.618 2169.21,652.328 2173.3,664.846 2177.38,677.16 2181.46,689.256 2185.54,701.122 2189.62,712.746 2193.7,724.116 2197.78,735.222 2201.87,746.053 2205.95,756.597 2210.03,766.846 2214.11,776.79 2218.19,786.419 2222.27,795.726 2226.35,804.702 2230.44,813.339 2234.52,821.631 2238.6,829.572 2242.68,837.154 2246.76,844.373 2250.84,851.224 2254.92,857.702 2259.01,863.803 2263.09,869.525 2267.17,874.863 2271.25,879.816 2275.33,884.383 2279.41,888.561 2283.49,892.351 2287.58,895.752 2291.66,898.765 "></polyline>
<path clip-path="url(#clip930)" d="M2012.48 1438.47 L2280.8 1438.47 L2280.8 1334.79 L2012.48 1334.79  Z" fill="#ffffff" fill-rule="evenodd" fill-opacity="1"></path>
<polyline clip-path="url(#clip930)" style="stroke:#000000; stroke-linecap:round; stroke-linejoin:round; stroke-width:4; stroke-opacity:1; fill:none" points="2012.48,1438.47 2280.8,1438.47 2280.8,1334.79 2012.48,1334.79 2012.48,1438.47 "></polyline>
<polyline clip-path="url(#clip930)" style="stroke:#009af9; stroke-linecap:round; stroke-linejoin:round; stroke-width:4; stroke-opacity:1; fill:none" points="2036.47,1386.63 2180.39,1386.63 "></polyline>
<path clip-path="url(#clip930)" d="M2218.22 1406.32 Q2216.42 1410.95 2214.7 1412.36 Q2212.99 1413.78 2210.12 1413.78 L2206.72 1413.78 L2206.72 1410.21 L2209.22 1410.21 Q2210.98 1410.21 2211.95 1409.38 Q2212.92 1408.54 2214.1 1405.44 L2214.86 1403.5 L2204.38 1377.99 L2208.89 1377.99 L2216.99 1398.27 L2225.1 1377.99 L2229.61 1377.99 L2218.22 1406.32 Z" fill="#000000" fill-rule="nonzero" fill-opacity="1"></path><path clip-path="url(#clip930)" d="M2236.9 1399.98 L2244.54 1399.98 L2244.54 1373.61 L2236.23 1375.28 L2236.23 1371.02 L2244.49 1369.35 L2249.17 1369.35 L2249.17 1399.98 L2256.81 1399.98 L2256.81 1403.91 L2236.9 1403.91 L2236.9 1399.98 Z" fill="#000000" fill-rule="nonzero" fill-opacity="1"></path></svg>