<svg xmlns="http://www.w3.org/2000/svg" xmlns:xlink="http://www.w3.org/1999/xlink" width="600" height="400" viewBox="0 0 2400 1600">
<defs>
  <clipPath id="clip890">
    <rect x="0" y="0" width="2400" height="1600"></rect>
  </clipPath>
</defs>
<path clip-path="url(#clip890)" d="M0 1600 L2400 1600 L2400 0 L0 0  Z" fill="#ffffff" fill-rule="evenodd" fill-opacity="1"></path>
<defs>
  <clipPath id="clip891">
    <rect x="480" y="0" width="1681" height="1600"></rect>
  </clipPath>
</defs>
<path clip-path="url(#clip890)" d="M147.478 1486.45 L2352.76 1486.45 L2352.76 47.2441 L147.478 47.2441  Z" fill="#ffffff" fill-rule="evenodd" fill-opacity="1"></path>
<defs>
  <clipPath id="clip892">
    <rect x="147" y="47" width="2206" height="1440"></rect>
  </clipPath>
</defs>
<polyline clip-path="url(#clip892)" style="stroke:#000000; stroke-linecap:round; stroke-linejoin:round; stroke-width:2; stroke-opacity:0.1; fill:none" points="205.722,1486.45 205.722,47.2441 "></polyline>
<polyline clip-path="url(#clip892)" style="stroke:#000000; stroke-linecap:round; stroke-linejoin:round; stroke-width:2; stroke-opacity:0.1; fill:none" points="622.646,1486.45 622.646,47.2441 "></polyline>
<polyline clip-path="url(#clip892)" style="stroke:#000000; stroke-linecap:round; stroke-linejoin:round; stroke-width:2; stroke-opacity:0.1; fill:none" points="1039.57,1486.45 1039.57,47.2441 "></polyline>
<polyline clip-path="url(#clip892)" style="stroke:#000000; stroke-linecap:round; stroke-linejoin:round; stroke-width:2; stroke-opacity:0.1; fill:none" points="1456.49,1486.45 1456.49,47.2441 "></polyline>
<polyline clip-path="url(#clip892)" style="stroke:#000000; stroke-linecap:round; stroke-linejoin:round; stroke-width:2; stroke-opacity:0.1; fill:none" points="1873.42,1486.45 1873.42,47.2441 "></polyline>
<polyline clip-path="url(#clip892)" style="stroke:#000000; stroke-linecap:round; stroke-linejoin:round; stroke-width:2; stroke-opacity:0.1; fill:none" points="2290.34,1486.45 2290.34,47.2441 "></polyline>
<polyline clip-path="url(#clip890)" style="stroke:#000000; stroke-linecap:round; stroke-linejoin:round; stroke-width:4; stroke-opacity:1; fill:none" points="147.478,1486.45 2352.76,1486.45 "></polyline>
<polyline clip-path="url(#clip890)" style="stroke:#000000; stroke-linecap:round; stroke-linejoin:round; stroke-width:4; stroke-opacity:1; fill:none" points="205.722,1486.45 205.722,1467.55 "></polyline>
<polyline clip-path="url(#clip890)" style="stroke:#000000; stroke-linecap:round; stroke-linejoin:round; stroke-width:4; stroke-opacity:1; fill:none" points="622.646,1486.45 622.646,1467.55 "></polyline>
<polyline clip-path="url(#clip890)" style="stroke:#000000; stroke-linecap:round; stroke-linejoin:round; stroke-width:4; stroke-opacity:1; fill:none" points="1039.57,1486.45 1039.57,1467.55 "></polyline>
<polyline clip-path="url(#clip890)" style="stroke:#000000; stroke-linecap:round; stroke-linejoin:round; stroke-width:4; stroke-opacity:1; fill:none" points="1456.49,1486.45 1456.49,1467.55 "></polyline>
<polyline clip-path="url(#clip890)" style="stroke:#000000; stroke-linecap:round; stroke-linejoin:round; stroke-width:4; stroke-opacity:1; fill:none" points="1873.42,1486.45 1873.42,1467.55 "></polyline>
<polyline clip-path="url(#clip890)" style="stroke:#000000; stroke-linecap:round; stroke-linejoin:round; stroke-width:4; stroke-opacity:1; fill:none" points="2290.34,1486.45 2290.34,1467.55 "></polyline>
<path clip-path="url(#clip890)" d="M205.722 1517.37 Q202.111 1517.37 200.282 1520.93 Q198.477 1524.47 198.477 1531.6 Q198.477 1538.71 200.282 1542.27 Q202.111 1545.82 205.722 1545.82 Q209.356 1545.82 211.162 1542.27 Q212.991 1538.71 212.991 1531.6 Q212.991 1524.47 211.162 1520.93 Q209.356 1517.37 205.722 1517.37 M205.722 1513.66 Q211.532 1513.66 214.588 1518.27 Q217.667 1522.85 217.667 1531.6 Q217.667 1540.33 214.588 1544.94 Q211.532 1549.52 205.722 1549.52 Q199.912 1549.52 196.833 1544.94 Q193.778 1540.33 193.778 1531.6 Q193.778 1522.85 196.833 1518.27 Q199.912 1513.66 205.722 1513.66 Z" fill="#000000" fill-rule="nonzero" fill-opacity="1"></path><path clip-path="url(#clip890)" d="M582.253 1544.91 L589.892 1544.91 L589.892 1518.55 L581.582 1520.21 L581.582 1515.95 L589.845 1514.29 L594.521 1514.29 L594.521 1544.91 L602.16 1544.91 L602.16 1548.85 L582.253 1548.85 L582.253 1544.91 Z" fill="#000000" fill-rule="nonzero" fill-opacity="1"></path><path clip-path="url(#clip890)" d="M621.605 1517.37 Q617.993 1517.37 616.165 1520.93 Q614.359 1524.47 614.359 1531.6 Q614.359 1538.71 616.165 1542.27 Q617.993 1545.82 621.605 1545.82 Q625.239 1545.82 627.044 1542.27 Q628.873 1538.71 628.873 1531.6 Q628.873 1524.47 627.044 1520.93 Q625.239 1517.37 621.605 1517.37 M621.605 1513.66 Q627.415 1513.66 630.47 1518.27 Q633.549 1522.85 633.549 1531.6 Q633.549 1540.33 630.47 1544.94 Q627.415 1549.52 621.605 1549.52 Q615.794 1549.52 612.716 1544.94 Q609.66 1540.33 609.66 1531.6 Q609.66 1522.85 612.716 1518.27 Q615.794 1513.66 621.605 1513.66 Z" fill="#000000" fill-rule="nonzero" fill-opacity="1"></path><path clip-path="url(#clip890)" d="M651.766 1517.37 Q648.155 1517.37 646.327 1520.93 Q644.521 1524.47 644.521 1531.6 Q644.521 1538.71 646.327 1542.27 Q648.155 1545.82 651.766 1545.82 Q655.401 1545.82 657.206 1542.27 Q659.035 1538.71 659.035 1531.6 Q659.035 1524.47 657.206 1520.93 Q655.401 1517.37 651.766 1517.37 M651.766 1513.66 Q657.577 1513.66 660.632 1518.27 Q663.711 1522.85 663.711 1531.6 Q663.711 1540.33 660.632 1544.94 Q657.577 1549.52 651.766 1549.52 Q645.956 1549.52 642.878 1544.94 Q639.822 1540.33 639.822 1531.6 Q639.822 1522.85 642.878 1518.27 Q645.956 1513.66 651.766 1513.66 Z" fill="#000000" fill-rule="nonzero" fill-opacity="1"></path><path clip-path="url(#clip890)" d="M1003.26 1544.91 L1019.58 1544.91 L1019.58 1548.85 L997.638 1548.85 L997.638 1544.91 Q1000.3 1542.16 1004.88 1537.53 Q1009.49 1532.88 1010.67 1531.53 Q1012.92 1529.01 1013.79 1527.27 Q1014.7 1525.51 1014.7 1523.82 Q1014.7 1521.07 1012.75 1519.33 Q1010.83 1517.6 1007.73 1517.6 Q1005.53 1517.6 1003.08 1518.36 Q1000.65 1519.13 997.869 1520.68 L997.869 1515.95 Q1000.69 1514.82 1003.15 1514.24 Q1005.6 1513.66 1007.64 1513.66 Q1013.01 1513.66 1016.2 1516.35 Q1019.4 1519.03 1019.4 1523.52 Q1019.4 1525.65 1018.59 1527.57 Q1017.8 1529.47 1015.69 1532.07 Q1015.11 1532.74 1012.01 1535.95 Q1008.91 1539.15 1003.26 1544.91 Z" fill="#000000" fill-rule="nonzero" fill-opacity="1"></path><path clip-path="url(#clip890)" d="M1039.4 1517.37 Q1035.79 1517.37 1033.96 1520.93 Q1032.15 1524.47 1032.15 1531.6 Q1032.15 1538.71 1033.96 1542.27 Q1035.79 1545.82 1039.4 1545.82 Q1043.03 1545.82 1044.84 1542.27 Q1046.67 1538.71 1046.67 1531.6 Q1046.67 1524.47 1044.84 1520.93 Q1043.03 1517.37 1039.4 1517.37 M1039.4 1513.66 Q1045.21 1513.66 1048.26 1518.27 Q1051.34 1522.85 1051.34 1531.6 Q1051.34 1540.33 1048.26 1544.94 Q1045.21 1549.52 1039.4 1549.52 Q1033.59 1549.52 1030.51 1544.94 Q1027.45 1540.33 1027.45 1531.6 Q1027.45 1522.85 1030.51 1518.27 Q1033.59 1513.66 1039.4 1513.66 Z" fill="#000000" fill-rule="nonzero" fill-opacity="1"></path><path clip-path="url(#clip890)" d="M1069.56 1517.37 Q1065.95 1517.37 1064.12 1520.93 Q1062.31 1524.47 1062.31 1531.6 Q1062.31 1538.71 1064.12 1542.27 Q1065.95 1545.82 1069.56 1545.82 Q1073.19 1545.82 1075 1542.27 Q1076.83 1538.71 1076.83 1531.6 Q1076.83 1524.47 1075 1520.93 Q1073.19 1517.37 1069.56 1517.37 M1069.56 1513.66 Q1075.37 1513.66 1078.42 1518.27 Q1081.5 1522.85 1081.5 1531.6 Q1081.5 1540.33 1078.42 1544.94 Q1075.37 1549.52 1069.56 1549.52 Q1063.75 1549.52 1060.67 1544.94 Q1057.61 1540.33 1057.61 1531.6 Q1057.61 1522.85 1060.67 1518.27 Q1063.75 1513.66 1069.56 1513.66 Z" fill="#000000" fill-rule="nonzero" fill-opacity="1"></path><path clip-path="url(#clip890)" d="M1430.26 1530.21 Q1433.61 1530.93 1435.49 1533.2 Q1437.39 1535.47 1437.39 1538.8 Q1437.39 1543.92 1433.87 1546.72 Q1430.35 1549.52 1423.87 1549.52 Q1421.69 1549.52 1419.38 1549.08 Q1417.08 1548.66 1414.63 1547.81 L1414.63 1543.29 Q1416.58 1544.43 1418.89 1545.01 Q1421.21 1545.58 1423.73 1545.58 Q1428.13 1545.58 1430.42 1543.85 Q1432.73 1542.11 1432.73 1538.8 Q1432.73 1535.75 1430.58 1534.03 Q1428.45 1532.3 1424.63 1532.3 L1420.6 1532.3 L1420.6 1528.45 L1424.82 1528.45 Q1428.27 1528.45 1430.09 1527.09 Q1431.92 1525.7 1431.92 1523.11 Q1431.92 1520.45 1430.02 1519.03 Q1428.15 1517.6 1424.63 1517.6 Q1422.71 1517.6 1420.51 1518.01 Q1418.31 1518.43 1415.67 1519.31 L1415.67 1515.14 Q1418.33 1514.4 1420.65 1514.03 Q1422.99 1513.66 1425.05 1513.66 Q1430.37 1513.66 1433.47 1516.09 Q1436.58 1518.5 1436.58 1522.62 Q1436.58 1525.49 1434.93 1527.48 Q1433.29 1529.45 1430.26 1530.21 Z" fill="#000000" fill-rule="nonzero" fill-opacity="1"></path><path clip-path="url(#clip890)" d="M1456.25 1517.37 Q1452.64 1517.37 1450.81 1520.93 Q1449.01 1524.47 1449.01 1531.6 Q1449.01 1538.71 1450.81 1542.27 Q1452.64 1545.82 1456.25 1545.82 Q1459.89 1545.82 1461.69 1542.27 Q1463.52 1538.71 1463.52 1531.6 Q1463.52 1524.47 1461.69 1520.93 Q1459.89 1517.37 1456.25 1517.37 M1456.25 1513.66 Q1462.06 1513.66 1465.12 1518.27 Q1468.2 1522.85 1468.2 1531.6 Q1468.2 1540.33 1465.12 1544.94 Q1462.06 1549.52 1456.25 1549.52 Q1450.44 1549.52 1447.36 1544.94 Q1444.31 1540.33 1444.31 1531.6 Q1444.31 1522.85 1447.36 1518.27 Q1450.44 1513.66 1456.25 1513.66 Z" fill="#000000" fill-rule="nonzero" fill-opacity="1"></path><path clip-path="url(#clip890)" d="M1486.41 1517.37 Q1482.8 1517.37 1480.97 1520.93 Q1479.17 1524.47 1479.17 1531.6 Q1479.17 1538.71 1480.97 1542.27 Q1482.8 1545.82 1486.41 1545.82 Q1490.05 1545.82 1491.85 1542.27 Q1493.68 1538.71 1493.68 1531.6 Q1493.68 1524.47 1491.85 1520.93 Q1490.05 1517.37 1486.41 1517.37 M1486.41 1513.66 Q1492.22 1513.66 1495.28 1518.27 Q1498.36 1522.85 1498.36 1531.6 Q1498.36 1540.33 1495.28 1544.94 Q1492.22 1549.52 1486.41 1549.52 Q1480.6 1549.52 1477.52 1544.94 Q1474.47 1540.33 1474.47 1531.6 Q1474.47 1522.85 1477.52 1518.27 Q1480.6 1513.66 1486.41 1513.66 Z" fill="#000000" fill-rule="nonzero" fill-opacity="1"></path><path clip-path="url(#clip890)" d="M1846.51 1518.36 L1834.7 1536.81 L1846.51 1536.81 L1846.51 1518.36 M1845.28 1514.29 L1851.16 1514.29 L1851.16 1536.81 L1856.09 1536.81 L1856.09 1540.7 L1851.16 1540.7 L1851.16 1548.85 L1846.51 1548.85 L1846.51 1540.7 L1830.91 1540.7 L1830.91 1536.19 L1845.28 1514.29 Z" fill="#000000" fill-rule="nonzero" fill-opacity="1"></path><path clip-path="url(#clip890)" d="M1873.82 1517.37 Q1870.21 1517.37 1868.38 1520.93 Q1866.58 1524.47 1866.58 1531.6 Q1866.58 1538.71 1868.38 1542.27 Q1870.21 1545.82 1873.82 1545.82 Q1877.46 1545.82 1879.26 1542.27 Q1881.09 1538.71 1881.09 1531.6 Q1881.09 1524.47 1879.26 1520.93 Q1877.46 1517.37 1873.82 1517.37 M1873.82 1513.66 Q1879.63 1513.66 1882.69 1518.27 Q1885.77 1522.85 1885.77 1531.6 Q1885.77 1540.33 1882.69 1544.94 Q1879.63 1549.52 1873.82 1549.52 Q1868.01 1549.52 1864.93 1544.94 Q1861.88 1540.33 1861.88 1531.6 Q1861.88 1522.85 1864.93 1518.27 Q1868.01 1513.66 1873.82 1513.66 Z" fill="#000000" fill-rule="nonzero" fill-opacity="1"></path><path clip-path="url(#clip890)" d="M1903.99 1517.37 Q1900.37 1517.37 1898.55 1520.93 Q1896.74 1524.47 1896.74 1531.6 Q1896.74 1538.71 1898.55 1542.27 Q1900.37 1545.82 1903.99 1545.82 Q1907.62 1545.82 1909.43 1542.27 Q1911.25 1538.71 1911.25 1531.6 Q1911.25 1524.47 1909.43 1520.93 Q1907.62 1517.37 1903.99 1517.37 M1903.99 1513.66 Q1909.8 1513.66 1912.85 1518.27 Q1915.93 1522.85 1915.93 1531.6 Q1915.93 1540.33 1912.85 1544.94 Q1909.8 1549.52 1903.99 1549.52 Q1898.18 1549.52 1895.1 1544.94 Q1892.04 1540.33 1892.04 1531.6 Q1892.04 1522.85 1895.1 1518.27 Q1898.18 1513.66 1903.99 1513.66 Z" fill="#000000" fill-rule="nonzero" fill-opacity="1"></path><path clip-path="url(#clip890)" d="M2249.96 1514.29 L2268.32 1514.29 L2268.32 1518.22 L2254.24 1518.22 L2254.24 1526.7 Q2255.26 1526.35 2256.28 1526.19 Q2257.3 1526 2258.32 1526 Q2264.1 1526 2267.48 1529.17 Q2270.86 1532.34 2270.86 1537.76 Q2270.86 1543.34 2267.39 1546.44 Q2263.92 1549.52 2257.6 1549.52 Q2255.42 1549.52 2253.16 1549.15 Q2250.91 1548.78 2248.5 1548.04 L2248.5 1543.34 Q2250.59 1544.47 2252.81 1545.03 Q2255.03 1545.58 2257.51 1545.58 Q2261.51 1545.58 2263.85 1543.48 Q2266.19 1541.37 2266.19 1537.76 Q2266.19 1534.15 2263.85 1532.04 Q2261.51 1529.94 2257.51 1529.94 Q2255.63 1529.94 2253.76 1530.35 Q2251.91 1530.77 2249.96 1531.65 L2249.96 1514.29 Z" fill="#000000" fill-rule="nonzero" fill-opacity="1"></path><path clip-path="url(#clip890)" d="M2290.08 1517.37 Q2286.47 1517.37 2284.64 1520.93 Q2282.83 1524.47 2282.83 1531.6 Q2282.83 1538.71 2284.64 1542.27 Q2286.47 1545.82 2290.08 1545.82 Q2293.71 1545.82 2295.52 1542.27 Q2297.34 1538.71 2297.34 1531.6 Q2297.34 1524.47 2295.52 1520.93 Q2293.71 1517.37 2290.08 1517.37 M2290.08 1513.66 Q2295.89 1513.66 2298.94 1518.27 Q2302.02 1522.85 2302.02 1531.6 Q2302.02 1540.33 2298.94 1544.94 Q2295.89 1549.52 2290.08 1549.52 Q2284.27 1549.52 2281.19 1544.94 Q2278.13 1540.33 2278.13 1531.6 Q2278.13 1522.85 2281.19 1518.27 Q2284.27 1513.66 2290.08 1513.66 Z" fill="#000000" fill-rule="nonzero" fill-opacity="1"></path><path clip-path="url(#clip890)" d="M2320.24 1517.37 Q2316.63 1517.37 2314.8 1520.93 Q2312.99 1524.47 2312.99 1531.6 Q2312.99 1538.71 2314.8 1542.27 Q2316.63 1545.82 2320.24 1545.82 Q2323.87 1545.82 2325.68 1542.27 Q2327.51 1538.71 2327.51 1531.6 Q2327.51 1524.47 2325.68 1520.93 Q2323.87 1517.37 2320.24 1517.37 M2320.24 1513.66 Q2326.05 1513.66 2329.1 1518.27 Q2332.18 1522.85 2332.18 1531.6 Q2332.18 1540.33 2329.1 1544.94 Q2326.05 1549.52 2320.24 1549.52 Q2314.43 1549.52 2311.35 1544.94 Q2308.29 1540.33 2308.29 1531.6 Q2308.29 1522.85 2311.35 1518.27 Q2314.43 1513.66 2320.24 1513.66 Z" fill="#000000" fill-rule="nonzero" fill-opacity="1"></path><polyline clip-path="url(#clip892)" style="stroke:#000000; stroke-linecap:round; stroke-linejoin:round; stroke-width:2; stroke-opacity:0.1; fill:none" points="147.478,1479.34 2352.76,1479.34 "></polyline>
<polyline clip-path="url(#clip892)" style="stroke:#000000; stroke-linecap:round; stroke-linejoin:round; stroke-width:2; stroke-opacity:0.1; fill:none" points="147.478,1123.09 2352.76,1123.09 "></polyline>
<polyline clip-path="url(#clip892)" style="stroke:#000000; stroke-linecap:round; stroke-linejoin:round; stroke-width:2; stroke-opacity:0.1; fill:none" points="147.478,766.846 2352.76,766.846 "></polyline>
<polyline clip-path="url(#clip892)" style="stroke:#000000; stroke-linecap:round; stroke-linejoin:round; stroke-width:2; stroke-opacity:0.1; fill:none" points="147.478,410.6 2352.76,410.6 "></polyline>
<polyline clip-path="url(#clip892)" style="stroke:#000000; stroke-linecap:round; stroke-linejoin:round; stroke-width:2; stroke-opacity:0.1; fill:none" points="147.478,54.3532 2352.76,54.3532 "></polyline>
<polyline clip-path="url(#clip890)" style="stroke:#000000; stroke-linecap:round; stroke-linejoin:round; stroke-width:4; stroke-opacity:1; fill:none" points="147.478,1486.45 147.478,47.2441 "></polyline>
<polyline clip-path="url(#clip890)" style="stroke:#000000; stroke-linecap:round; stroke-linejoin:round; stroke-width:4; stroke-opacity:1; fill:none" points="147.478,1479.34 166.376,1479.34 "></polyline>
<polyline clip-path="url(#clip890)" style="stroke:#000000; stroke-linecap:round; stroke-linejoin:round; stroke-width:4; stroke-opacity:1; fill:none" points="147.478,1123.09 166.376,1123.09 "></polyline>
<polyline clip-path="url(#clip890)" style="stroke:#000000; stroke-linecap:round; stroke-linejoin:round; stroke-width:4; stroke-opacity:1; fill:none" points="147.478,766.846 166.376,766.846 "></polyline>
<polyline clip-path="url(#clip890)" style="stroke:#000000; stroke-linecap:round; stroke-linejoin:round; stroke-width:4; stroke-opacity:1; fill:none" points="147.478,410.6 166.376,410.6 "></polyline>
<polyline clip-path="url(#clip890)" style="stroke:#000000; stroke-linecap:round; stroke-linejoin:round; stroke-width:4; stroke-opacity:1; fill:none" points="147.478,54.3532 166.376,54.3532 "></polyline>
<path clip-path="url(#clip890)" d="M51.3625 1479.79 L81.0383 1479.79 L81.0383 1483.73 L51.3625 1483.73 L51.3625 1479.79 Z" fill="#000000" fill-rule="nonzero" fill-opacity="1"></path><path clip-path="url(#clip890)" d="M95.1586 1492.68 L111.478 1492.68 L111.478 1496.62 L89.5336 1496.62 L89.5336 1492.68 Q92.1956 1489.93 96.7789 1485.3 Q101.385 1480.65 102.566 1479.3 Q104.811 1476.78 105.691 1475.04 Q106.594 1473.29 106.594 1471.6 Q106.594 1468.84 104.649 1467.11 Q102.728 1465.37 99.6261 1465.37 Q97.4271 1465.37 94.9734 1466.13 Q92.5428 1466.9 89.7651 1468.45 L89.7651 1463.73 Q92.5891 1462.59 95.0428 1462.01 Q97.4965 1461.43 99.5335 1461.43 Q104.904 1461.43 108.098 1464.12 Q111.293 1466.8 111.293 1471.29 Q111.293 1473.42 110.483 1475.35 Q109.696 1477.24 107.589 1479.84 Q107.01 1480.51 103.909 1483.73 Q100.807 1486.92 95.1586 1492.68 Z" fill="#000000" fill-rule="nonzero" fill-opacity="1"></path><path clip-path="url(#clip890)" d="M50.9921 1123.54 L80.6679 1123.54 L80.6679 1127.48 L50.9921 1127.48 L50.9921 1123.54 Z" fill="#000000" fill-rule="nonzero" fill-opacity="1"></path><path clip-path="url(#clip890)" d="M91.5706 1136.44 L99.2095 1136.44 L99.2095 1110.07 L90.8993 1111.74 L90.8993 1107.48 L99.1632 1105.81 L103.839 1105.81 L103.839 1136.44 L111.478 1136.44 L111.478 1140.37 L91.5706 1140.37 L91.5706 1136.44 Z" fill="#000000" fill-rule="nonzero" fill-opacity="1"></path><path clip-path="url(#clip890)" d="M99.5335 752.645 Q95.9224 752.645 94.0937 756.209 Q92.2882 759.751 92.2882 766.881 Q92.2882 773.987 94.0937 777.552 Q95.9224 781.094 99.5335 781.094 Q103.168 781.094 104.973 777.552 Q106.802 773.987 106.802 766.881 Q106.802 759.751 104.973 756.209 Q103.168 752.645 99.5335 752.645 M99.5335 748.941 Q105.344 748.941 108.399 753.547 Q111.478 758.131 111.478 766.881 Q111.478 775.608 108.399 780.214 Q105.344 784.797 99.5335 784.797 Q93.7234 784.797 90.6447 780.214 Q87.5892 775.608 87.5892 766.881 Q87.5892 758.131 90.6447 753.547 Q93.7234 748.941 99.5335 748.941 Z" fill="#000000" fill-rule="nonzero" fill-opacity="1"></path><path clip-path="url(#clip890)" d="M91.5706 423.944 L99.2095 423.944 L99.2095 397.579 L90.8993 399.245 L90.8993 394.986 L99.1632 393.32 L103.839 393.32 L103.839 423.944 L111.478 423.944 L111.478 427.88 L91.5706 427.88 L91.5706 423.944 Z" fill="#000000" fill-rule="nonzero" fill-opacity="1"></path><path clip-path="url(#clip890)" d="M95.1586 67.698 L111.478 67.698 L111.478 71.6332 L89.5336 71.6332 L89.5336 67.698 Q92.1956 64.9434 96.7789 60.3138 Q101.385 55.6611 102.566 54.3185 Q104.811 51.7953 105.691 50.0592 Q106.594 48.3 106.594 46.6102 Q106.594 43.8556 104.649 42.1195 Q102.728 40.3834 99.6261 40.3834 Q97.4271 40.3834 94.9734 41.1472 Q92.5428 41.9111 89.7651 43.462 L89.7651 38.7398 Q92.5891 37.6056 95.0428 37.0269 Q97.4965 36.4482 99.5335 36.4482 Q104.904 36.4482 108.098 39.1334 Q111.293 41.8185 111.293 46.3093 Q111.293 48.4389 110.483 50.3602 Q109.696 52.2583 107.589 54.8509 Q107.01 55.5222 103.909 58.7397 Q100.807 61.9342 95.1586 67.698 Z" fill="#000000" fill-rule="nonzero" fill-opacity="1"></path><polyline clip-path="url(#clip892)" style="stroke:#009af9; stroke-linecap:round; stroke-linejoin:round; stroke-width:4; stroke-opacity:1; fill:none" points="209.891,748.196 214.061,729.563 218.23,710.964 222.399,692.416 226.568,673.936 230.738,655.54 234.907,637.247 239.076,619.071 243.245,601.031 247.415,583.141 251.584,565.419 255.753,547.88 259.922,530.54 264.092,513.415 268.261,496.519 272.43,479.869 276.599,463.479 280.769,447.363 284.938,431.536 289.107,416.012 293.276,400.803 297.445,385.924 301.615,371.387 305.784,357.205 309.953,343.389 314.122,329.952 318.292,316.904 322.461,304.257 326.63,292.02 330.799,280.204 334.969,268.819 339.138,257.872 343.307,247.373 347.476,237.33 351.646,227.749 355.815,218.639 359.984,210.006 364.153,201.854 368.323,194.191 372.492,187.021 376.661,180.348 380.83,174.176 385,168.508 389.169,163.347 393.338,158.695 397.507,154.554 401.676,150.925 405.846,147.808 410.015,145.204 414.184,143.111 418.353,141.529 422.523,140.456 426.692,139.889 430.861,139.826 435.03,140.264 439.2,141.198 443.369,142.625 447.538,144.54 451.707,146.936 455.877,149.809 460.046,153.152 464.215,156.957 468.384,161.219 472.554,165.928 476.723,171.077 480.892,176.656 485.061,182.657 489.231,189.071 493.4,195.886 497.569,203.093 501.738,210.681 505.908,218.639 510.077,226.955 514.246,235.618 518.415,244.615 522.584,253.934 526.754,263.562 530.923,273.486 535.092,283.693 539.261,294.168 543.431,304.899 547.6,315.872 551.769,327.071 555.938,338.483 560.108,350.094 564.277,361.887 568.446,373.85 572.615,385.966 576.785,398.221 580.954,410.6 585.123,423.087 589.292,435.667 593.462,448.326 597.631,461.047 601.8,473.817 605.969,486.619 610.139,499.439 614.308,512.261 618.477,525.072 622.646,537.855 626.815,550.597 630.985,563.283 635.154,575.898 639.323,588.429 643.492,600.862 647.662,613.182 651.831,625.376 656,637.432 660.169,649.336 664.339,661.075 668.508,672.637 672.677,684.01 676.846,695.182 681.016,706.141 685.185,716.878 689.354,727.38 693.523,737.638 697.693,747.641 701.862,757.38 706.031,766.846 710.2,776.03 714.37,784.924 718.539,793.52 722.708,801.81 726.877,809.788 731.046,817.447 735.216,824.781 739.385,831.784 743.554,838.452 747.723,844.78 751.893,850.763 756.062,856.398 760.231,861.682 764.4,866.613 768.57,871.188 772.739,875.406 776.908,879.265 781.077,882.765 785.247,885.907 789.416,888.689 793.585,891.114 797.754,893.183 801.924,894.898 806.093,896.26 810.262,897.274 814.431,897.941 818.601,898.268 822.77,898.256 826.939,897.912 831.108,897.241 835.277,896.248 839.447,894.94 843.616,893.323 847.785,891.404 851.954,889.19 856.124,886.69 860.293,883.912 864.462,880.863 868.631,877.554 872.801,873.993 876.97,870.191 881.139,866.156 885.308,861.9 889.478,857.433 893.647,852.766 897.816,847.91 901.985,842.876 906.155,837.677 910.324,832.323 914.493,826.828 918.662,821.203 922.832,815.461 927.001,809.614 931.17,803.676 935.339,797.659 939.509,791.575 943.678,785.439 947.847,779.264 952.016,773.061 956.185,766.846 960.355,760.631 964.524,754.428 968.693,748.253 972.862,742.117 977.032,736.033 981.201,730.016 985.37,724.078 989.539,718.231 993.709,712.489 997.878,706.864 1002.05,701.369 1006.22,696.015 1010.39,690.816 1014.55,685.782 1018.72,680.926 1022.89,676.259 1027.06,671.792 1031.23,667.536 1035.4,663.501 1039.57,659.699 1043.74,656.138 1047.91,652.829 1052.08,649.78 1056.25,647.002 1060.42,644.502 1064.59,642.288 1068.75,640.369 1072.92,638.752 1077.09,637.444 1081.26,636.451 1085.43,635.78 1089.6,635.436 1093.77,635.424 1097.94,635.751 1102.11,636.418 1106.28,637.432 1110.45,638.794 1114.62,640.509 1118.79,642.578 1122.96,645.003 1127.12,647.785 1131.29,650.927 1135.46,654.427 1139.63,658.286 1143.8,662.504 1147.97,667.079 1152.14,672.01 1156.31,677.294 1160.48,682.929 1164.65,688.912 1168.82,695.24 1172.99,701.908 1177.16,708.911 1181.32,716.245 1185.49,723.904 1189.66,731.882 1193.83,740.172 1198,748.768 1202.17,757.662 1206.34,766.846 1210.51,776.312 1214.68,786.051 1218.85,796.054 1223.02,806.312 1227.19,816.814 1231.36,827.551 1235.52,838.51 1239.69,849.682 1243.86,861.055 1248.03,872.617 1252.2,884.356 1256.37,896.26 1260.54,908.316 1264.71,920.51 1268.88,932.83 1273.05,945.263 1277.22,957.794 1281.39,970.409 1285.56,983.095 1289.72,995.837 1293.89,1008.62 1298.06,1021.43 1302.23,1034.25 1306.4,1047.07 1310.57,1059.88 1314.74,1072.64 1318.91,1085.37 1323.08,1098.02 1327.25,1110.61 1331.42,1123.09 1335.59,1135.47 1339.76,1147.73 1343.92,1159.84 1348.09,1171.8 1352.26,1183.6 1356.43,1195.21 1360.6,1206.62 1364.77,1217.82 1368.94,1228.79 1373.11,1239.52 1377.28,1250 1381.45,1260.21 1385.62,1270.13 1389.79,1279.76 1393.96,1289.08 1398.12,1298.07 1402.29,1306.74 1406.46,1315.05 1410.63,1323.01 1414.8,1330.6 1418.97,1337.81 1423.14,1344.62 1427.31,1351.03 1431.48,1357.04 1435.65,1362.62 1439.82,1367.76 1443.99,1372.47 1448.16,1376.73 1452.33,1380.54 1456.49,1383.88 1460.66,1386.76 1464.83,1389.15 1469,1391.07 1473.17,1392.49 1477.34,1393.43 1481.51,1393.87 1485.68,1393.8 1489.85,1393.24 1494.02,1392.16 1498.19,1390.58 1502.36,1388.49 1506.53,1385.88 1510.69,1382.77 1514.86,1379.14 1519.03,1375 1523.2,1370.34 1527.37,1365.18 1531.54,1359.52 1535.71,1353.34 1539.88,1346.67 1544.05,1339.5 1548.22,1331.84 1552.39,1323.69 1556.56,1315.05 1560.73,1305.94 1564.89,1296.36 1569.06,1286.32 1573.23,1275.82 1577.4,1264.87 1581.57,1253.49 1585.74,1241.67 1589.91,1229.44 1594.08,1216.79 1598.25,1203.74 1602.42,1190.3 1606.59,1176.49 1610.76,1162.3 1614.93,1147.77 1619.09,1132.89 1623.26,1117.68 1627.43,1102.16 1631.6,1086.33 1635.77,1070.21 1639.94,1053.82 1644.11,1037.17 1648.28,1020.28 1652.45,1003.15 1656.62,985.812 1660.79,968.273 1664.96,950.551 1669.13,932.661 1673.29,914.621 1677.46,896.445 1681.63,878.152 1685.8,859.756 1689.97,841.276 1694.14,822.728 1698.31,804.129 1702.48,785.496 1706.65,766.846 1710.82,748.196 1714.99,729.563 1719.16,710.964 1723.33,692.416 1727.49,673.936 1731.66,655.54 1735.83,637.247 1740,619.071 1744.17,601.031 1748.34,583.141 1752.51,565.419 1756.68,547.88 1760.85,530.54 1765.02,513.415 1769.19,496.519 1773.36,479.869 1777.53,463.479 1781.7,447.363 1785.86,431.536 1790.03,416.012 1794.2,400.803 1798.37,385.924 1802.54,371.387 1806.71,357.205 1810.88,343.389 1815.05,329.952 1819.22,316.904 1823.39,304.257 1827.56,292.02 1831.73,280.204 1835.9,268.819 1840.06,257.872 1844.23,247.373 1848.4,237.33 1852.57,227.749 1856.74,218.639 1860.91,210.006 1865.08,201.854 1869.25,194.191 1873.42,187.021 1877.59,180.348 1881.76,174.176 1885.93,168.508 1890.1,163.347 1894.26,158.695 1898.43,154.554 1902.6,150.925 1906.77,147.808 1910.94,145.204 1915.11,143.111 1919.28,141.529 1923.45,140.456 1927.62,139.889 1931.79,139.826 1935.96,140.264 1940.13,141.198 1944.3,142.625 1948.46,144.54 1952.63,146.936 1956.8,149.809 1960.97,153.152 1965.14,156.957 1969.31,161.219 1973.48,165.928 1977.65,171.077 1981.82,176.656 1985.99,182.657 1990.16,189.071 1994.33,195.886 1998.5,203.093 2002.66,210.681 2006.83,218.639 2011,226.955 2015.17,235.618 2019.34,244.615 2023.51,253.934 2027.68,263.562 2031.85,273.486 2036.02,283.693 2040.19,294.168 2044.36,304.899 2048.53,315.872 2052.7,327.071 2056.86,338.483 2061.03,350.094 2065.2,361.887 2069.37,373.85 2073.54,385.966 2077.71,398.221 2081.88,410.6 2086.05,423.087 2090.22,435.667 2094.39,448.326 2098.56,461.047 2102.73,473.817 2106.9,486.619 2111.07,499.439 2115.23,512.261 2119.4,525.072 2123.57,537.855 2127.74,550.597 2131.91,563.283 2136.08,575.898 2140.25,588.429 2144.42,600.862 2148.59,613.182 2152.76,625.376 2156.93,637.432 2161.1,649.336 2165.27,661.075 2169.43,672.637 2173.6,684.01 2177.77,695.182 2181.94,706.141 2186.11,716.878 2190.28,727.38 2194.45,737.638 2198.62,747.641 2202.79,757.38 2206.96,766.846 2211.13,776.03 2215.3,784.924 2219.47,793.52 2223.63,801.81 2227.8,809.788 2231.97,817.447 2236.14,824.781 2240.31,831.784 2244.48,838.452 2248.65,844.78 2252.82,850.763 2256.99,856.398 2261.16,861.682 2265.33,866.613 2269.5,871.188 2273.67,875.406 2277.83,879.265 2282,882.765 2286.17,885.907 2290.34,888.689 "></polyline>
<polyline clip-path="url(#clip892)" style="stroke:#e26f46; stroke-linecap:round; stroke-linejoin:round; stroke-width:4; stroke-opacity:1; fill:none" points="209.891,735.769 214.061,704.758 218.23,673.879 222.399,643.198 226.568,612.781 230.738,582.692 234.907,552.995 239.076,523.753 243.245,495.027 247.415,466.879 251.584,439.368 255.753,412.551 259.922,386.485 264.092,361.223 268.261,336.819 272.43,313.321 276.599,290.78 280.769,269.24 284.938,248.745 289.107,229.337 293.276,211.053 297.445,193.929 301.615,177.999 305.784,163.293 309.953,149.838 314.122,137.658 318.292,126.776 322.461,117.209 326.63,108.974 330.799,102.081 334.969,96.5409 339.138,92.359 343.307,89.5383 347.476,88.0785 351.646,87.9763 355.815,89.2251 359.984,91.8153 364.153,95.7343 368.323,100.967 372.492,107.493 376.661,115.293 380.83,124.342 385,134.612 389.169,146.074 393.338,158.695 397.507,172.441 401.676,187.274 405.846,203.155 410.015,220.041 414.184,237.889 418.353,256.652 422.523,276.283 426.692,296.733 430.861,317.949 435.03,339.881 439.2,362.472 443.369,385.669 447.538,409.416 451.707,433.655 455.877,458.328 460.046,483.376 464.215,508.742 468.384,534.366 472.554,560.188 476.723,586.149 480.892,612.19 485.061,638.251 489.231,664.275 493.4,690.203 497.569,715.978 501.738,741.544 505.908,766.846 510.077,791.829 514.246,816.44 518.415,840.627 522.584,864.341 526.754,887.533 530.923,910.157 535.092,932.167 539.261,953.521 543.431,974.178 547.6,994.098 551.769,1013.25 555.938,1031.59 560.108,1049.09 564.277,1065.73 568.446,1081.47 572.615,1096.29 576.785,1110.17 580.954,1123.09 585.123,1135.04 589.292,1145.99 593.462,1155.94 597.631,1164.89 601.8,1172.82 605.969,1179.72 610.139,1185.61 614.308,1190.49 618.477,1194.35 622.646,1197.21 626.815,1199.07 630.985,1199.95 635.154,1199.87 639.323,1198.84 643.492,1196.87 647.662,1194 651.831,1190.25 656,1185.64 660.169,1180.2 664.339,1173.96 668.508,1166.95 672.677,1159.21 676.846,1150.78 681.016,1141.67 685.185,1131.95 689.354,1121.64 693.523,1110.78 697.693,1099.43 701.862,1087.6 706.031,1075.36 710.2,1062.75 714.37,1049.8 718.539,1036.56 722.708,1023.08 726.877,1009.4 731.046,995.57 735.216,981.625 739.385,967.612 743.554,953.575 747.723,939.557 751.893,925.6 756.062,911.744 760.231,898.031 764.4,884.5 768.57,871.188 772.739,858.133 776.908,845.369 781.077,832.931 785.247,820.852 789.416,809.162 793.585,797.89 797.754,787.063 801.924,776.707 806.093,766.846 810.262,757.5 814.431,748.69 818.601,740.433 822.77,732.743 826.939,725.635 831.108,719.118 835.277,713.202 839.447,707.893 843.616,703.195 847.785,699.11 851.954,695.639 856.124,692.778 860.293,690.524 864.462,688.868 868.631,687.803 872.801,687.318 876.97,687.4 881.139,688.033 885.308,689.201 889.478,690.885 893.647,693.065 897.816,695.718 901.985,698.821 906.155,702.348 910.324,706.273 914.493,710.566 918.662,715.2 922.832,720.142 927.001,725.362 931.17,730.828 935.339,736.504 939.509,742.358 943.678,748.355 947.847,754.459 952.016,760.634 956.185,766.846 960.355,773.058 964.524,779.233 968.693,785.337 972.862,791.334 977.032,797.188 981.201,802.864 985.37,808.329 989.539,813.55 993.709,818.492 997.878,823.126 1002.05,827.419 1006.22,831.344 1010.39,834.871 1014.55,837.974 1018.72,840.627 1022.89,842.807 1027.06,844.491 1031.23,845.659 1035.4,846.292 1039.57,846.374 1043.74,845.888 1047.91,844.824 1052.08,843.168 1056.25,840.914 1060.42,838.053 1064.59,834.582 1068.75,830.497 1072.92,825.799 1077.09,820.49 1081.26,814.574 1085.43,808.057 1089.6,800.949 1093.77,793.259 1097.94,785.002 1102.11,776.191 1106.28,766.846 1110.45,756.985 1114.62,746.629 1118.79,735.802 1122.96,724.53 1127.12,712.84 1131.29,700.761 1135.46,688.323 1139.63,675.559 1143.8,662.504 1147.97,649.192 1152.14,635.661 1156.31,621.948 1160.48,608.092 1164.65,594.135 1168.82,580.117 1172.99,566.08 1177.16,552.067 1181.32,538.122 1185.49,524.287 1189.66,510.608 1193.83,497.128 1198,483.892 1202.17,470.944 1206.34,458.328 1210.51,446.087 1214.68,434.266 1218.85,422.907 1223.02,412.052 1227.19,401.742 1231.36,392.017 1235.52,382.916 1239.69,374.478 1243.86,366.738 1248.03,359.732 1252.2,353.493 1256.37,348.053 1260.54,343.442 1264.71,339.689 1268.88,336.819 1273.05,334.856 1277.22,333.822 1281.39,333.738 1285.56,334.62 1289.72,336.484 1293.89,339.342 1298.06,343.204 1302.23,348.078 1306.4,353.968 1310.57,360.877 1314.74,368.805 1318.91,377.748 1323.08,387.701 1327.25,398.655 1331.42,410.6 1335.59,423.521 1339.76,437.402 1343.92,452.223 1348.09,467.964 1352.26,484.6 1356.43,502.103 1360.6,520.445 1364.77,539.594 1368.94,559.514 1373.11,580.171 1377.28,601.525 1381.45,623.535 1385.62,646.159 1389.79,669.351 1393.96,693.065 1398.12,717.252 1402.29,741.863 1406.46,766.846 1410.63,792.147 1414.8,817.714 1418.97,843.489 1423.14,869.417 1427.31,895.441 1431.48,921.502 1435.65,947.543 1439.82,973.504 1443.99,999.326 1448.16,1024.95 1452.33,1050.32 1456.49,1075.36 1460.66,1100.04 1464.83,1124.28 1469,1148.02 1473.17,1171.22 1477.34,1193.81 1481.51,1215.74 1485.68,1236.96 1489.85,1257.41 1494.02,1277.04 1498.19,1295.8 1502.36,1313.65 1506.53,1330.54 1510.69,1346.42 1514.86,1361.25 1519.03,1375 1523.2,1387.62 1527.37,1399.08 1531.54,1409.35 1535.71,1418.4 1539.88,1426.2 1544.05,1432.73 1548.22,1437.96 1552.39,1441.88 1556.56,1444.47 1560.73,1445.72 1564.89,1445.61 1569.06,1444.15 1573.23,1441.33 1577.4,1437.15 1581.57,1431.61 1585.74,1424.72 1589.91,1416.48 1594.08,1406.92 1598.25,1396.03 1602.42,1383.85 1606.59,1370.4 1610.76,1355.69 1614.93,1339.76 1619.09,1322.64 1623.26,1304.36 1627.43,1284.95 1631.6,1264.45 1635.77,1242.91 1639.94,1220.37 1644.11,1196.87 1648.28,1172.47 1652.45,1147.21 1656.62,1121.14 1660.79,1094.32 1664.96,1066.81 1669.13,1038.66 1673.29,1009.94 1677.46,980.697 1681.63,951 1685.8,920.911 1689.97,890.494 1694.14,859.813 1698.31,828.934 1702.48,797.923 1706.65,766.846 1710.82,735.769 1714.99,704.758 1719.16,673.879 1723.33,643.198 1727.49,612.781 1731.66,582.692 1735.83,552.995 1740,523.753 1744.17,495.027 1748.34,466.879 1752.51,439.368 1756.68,412.551 1760.85,386.485 1765.02,361.223 1769.19,336.819 1773.36,313.321 1777.53,290.78 1781.7,269.24 1785.86,248.745 1790.03,229.337 1794.2,211.053 1798.37,193.929 1802.54,177.999 1806.71,163.293 1810.88,149.838 1815.05,137.658 1819.22,126.776 1823.39,117.209 1827.56,108.974 1831.73,102.081 1835.9,96.5409 1840.06,92.359 1844.23,89.5383 1848.4,88.0785 1852.57,87.9763 1856.74,89.2251 1860.91,91.8153 1865.08,95.7343 1869.25,100.967 1873.42,107.493 1877.59,115.293 1881.76,124.342 1885.93,134.612 1890.1,146.074 1894.26,158.695 1898.43,172.441 1902.6,187.274 1906.77,203.155 1910.94,220.041 1915.11,237.889 1919.28,256.652 1923.45,276.283 1927.62,296.733 1931.79,317.949 1935.96,339.881 1940.13,362.472 1944.3,385.669 1948.46,409.416 1952.63,433.655 1956.8,458.328 1960.97,483.376 1965.14,508.742 1969.31,534.366 1973.48,560.188 1977.65,586.149 1981.82,612.19 1985.99,638.251 1990.16,664.275 1994.33,690.203 1998.5,715.978 2002.66,741.544 2006.83,766.846 2011,791.829 2015.17,816.44 2019.34,840.627 2023.51,864.341 2027.68,887.533 2031.85,910.157 2036.02,932.167 2040.19,953.521 2044.36,974.178 2048.53,994.098 2052.7,1013.25 2056.86,1031.59 2061.03,1049.09 2065.2,1065.73 2069.37,1081.47 2073.54,1096.29 2077.71,1110.17 2081.88,1123.09 2086.05,1135.04 2090.22,1145.99 2094.39,1155.94 2098.56,1164.89 2102.73,1172.82 2106.9,1179.72 2111.07,1185.61 2115.23,1190.49 2119.4,1194.35 2123.57,1197.21 2127.74,1199.07 2131.91,1199.95 2136.08,1199.87 2140.25,1198.84 2144.42,1196.87 2148.59,1194 2152.76,1190.25 2156.93,1185.64 2161.1,1180.2 2165.27,1173.96 2169.43,1166.95 2173.6,1159.21 2177.77,1150.78 2181.94,1141.67 2186.11,1131.95 2190.28,1121.64 2194.45,1110.78 2198.62,1099.43 2202.79,1087.6 2206.96,1075.36 2211.13,1062.75 2215.3,1049.8 2219.47,1036.56 2223.63,1023.08 2227.8,1009.4 2231.97,995.57 2236.14,981.625 2240.31,967.612 2244.48,953.575 2248.65,939.557 2252.82,925.6 2256.99,911.744 2261.16,898.031 2265.33,884.5 2269.5,871.188 2273.67,858.133 2277.83,845.369 2282,832.931 2286.17,820.852 2290.34,809.162 "></polyline>
<path clip-path="url(#clip890)" d="M220.987 1438.47 L493.945 1438.47 L493.945 1282.95 L220.987 1282.95  Z" fill="#ffffff" fill-rule="evenodd" fill-opacity="1"></path>
<polyline clip-path="url(#clip890)" style="stroke:#000000; stroke-linecap:round; stroke-linejoin:round; stroke-width:4; stroke-opacity:1; fill:none" points="220.987,1438.47 493.945,1438.47 493.945,1282.95 220.987,1282.95 220.987,1438.47 "></polyline>
<polyline clip-path="url(#clip890)" style="stroke:#009af9; stroke-linecap:round; stroke-linejoin:round; stroke-width:4; stroke-opacity:1; fill:none" points="245.49,1334.79 392.509,1334.79 "></polyline>
<path clip-path="url(#clip890)" d="M430.854 1354.48 Q429.049 1359.11 427.336 1360.52 Q425.623 1361.94 422.753 1361.94 L419.35 1361.94 L419.35 1358.37 L421.85 1358.37 Q423.609 1358.37 424.581 1357.54 Q425.554 1356.7 426.734 1353.6 L427.498 1351.66 L417.012 1326.15 L421.526 1326.15 L429.628 1346.43 L437.729 1326.15 L442.243 1326.15 L430.854 1354.48 Z" fill="#000000" fill-rule="nonzero" fill-opacity="1"></path><path clip-path="url(#clip890)" d="M449.535 1348.14 L457.174 1348.14 L457.174 1321.77 L448.864 1323.44 L448.864 1319.18 L457.127 1317.51 L461.803 1317.51 L461.803 1348.14 L469.442 1348.14 L469.442 1352.07 L449.535 1352.07 L449.535 1348.14 Z" fill="#000000" fill-rule="nonzero" fill-opacity="1"></path><polyline clip-path="url(#clip890)" style="stroke:#e26f46; stroke-linecap:round; stroke-linejoin:round; stroke-width:4; stroke-opacity:1; fill:none" points="245.49,1386.63 392.509,1386.63 "></polyline>
<path clip-path="url(#clip890)" d="M430.854 1406.32 Q429.049 1410.95 427.336 1412.36 Q425.623 1413.78 422.753 1413.78 L419.35 1413.78 L419.35 1410.21 L421.85 1410.21 Q423.609 1410.21 424.581 1409.38 Q425.554 1408.54 426.734 1405.44 L427.498 1403.5 L417.012 1377.99 L421.526 1377.99 L429.628 1398.27 L437.729 1377.99 L442.243 1377.99 L430.854 1406.32 Z" fill="#000000" fill-rule="nonzero" fill-opacity="1"></path><path clip-path="url(#clip890)" d="M452.752 1399.98 L469.072 1399.98 L469.072 1403.91 L447.127 1403.91 L447.127 1399.98 Q449.789 1397.22 454.373 1392.6 Q458.979 1387.94 460.16 1386.6 Q462.405 1384.08 463.285 1382.34 Q464.188 1380.58 464.188 1378.89 Q464.188 1376.14 462.243 1374.4 Q460.322 1372.66 457.22 1372.66 Q455.021 1372.66 452.567 1373.43 Q450.137 1374.19 447.359 1375.74 L447.359 1371.02 Q450.183 1369.89 452.637 1369.31 Q455.09 1368.73 457.127 1368.73 Q462.498 1368.73 465.692 1371.41 Q468.887 1374.1 468.887 1378.59 Q468.887 1380.72 468.076 1382.64 Q467.289 1384.54 465.183 1387.13 Q464.604 1387.8 461.502 1391.02 Q458.401 1394.22 452.752 1399.98 Z" fill="#000000" fill-rule="nonzero" fill-opacity="1"></path></svg>