<svg xmlns="http://www.w3.org/2000/svg" xmlns:xlink="http://www.w3.org/1999/xlink" width="600" height="400" viewBox="0 0 2400 1600">
<defs>
  <clipPath id="clip850">
    <rect x="0" y="0" width="2400" height="1600"></rect>
  </clipPath>
</defs>
<path clip-path="url(#clip850)" d="M0 1600 L2400 1600 L2400 0 L0 0  Z" fill="#ffffff" fill-rule="evenodd" fill-opacity="1"></path>
<defs>
  <clipPath id="clip851">
    <rect x="480" y="0" width="1681" height="1600"></rect>
  </clipPath>
</defs>
<path clip-path="url(#clip850)" d="M140.696 1486.45 L2352.76 1486.45 L2352.76 47.2441 L140.696 47.2441  Z" fill="#ffffff" fill-rule="evenodd" fill-opacity="1"></path>
<defs>
  <clipPath id="clip852">
    <rect x="140" y="47" width="2213" height="1440"></rect>
  </clipPath>
</defs>
<polyline clip-path="url(#clip852)" style="stroke:#000000; stroke-linecap:round; stroke-linejoin:round; stroke-width:2; stroke-opacity:0.1; fill:none" points="203.301,1486.45 203.301,47.2441 "></polyline>
<polyline clip-path="url(#clip852)" style="stroke:#000000; stroke-linecap:round; stroke-linejoin:round; stroke-width:2; stroke-opacity:0.1; fill:none" points="725.013,1486.45 725.013,47.2441 "></polyline>
<polyline clip-path="url(#clip852)" style="stroke:#000000; stroke-linecap:round; stroke-linejoin:round; stroke-width:2; stroke-opacity:0.1; fill:none" points="1246.73,1486.45 1246.73,47.2441 "></polyline>
<polyline clip-path="url(#clip852)" style="stroke:#000000; stroke-linecap:round; stroke-linejoin:round; stroke-width:2; stroke-opacity:0.1; fill:none" points="1768.44,1486.45 1768.44,47.2441 "></polyline>
<polyline clip-path="url(#clip852)" style="stroke:#000000; stroke-linecap:round; stroke-linejoin:round; stroke-width:2; stroke-opacity:0.1; fill:none" points="2290.15,1486.45 2290.15,47.2441 "></polyline>
<polyline clip-path="url(#clip850)" style="stroke:#000000; stroke-linecap:round; stroke-linejoin:round; stroke-width:4; stroke-opacity:1; fill:none" points="140.696,1486.45 2352.76,1486.45 "></polyline>
<polyline clip-path="url(#clip850)" style="stroke:#000000; stroke-linecap:round; stroke-linejoin:round; stroke-width:4; stroke-opacity:1; fill:none" points="203.301,1486.45 203.301,1467.55 "></polyline>
<polyline clip-path="url(#clip850)" style="stroke:#000000; stroke-linecap:round; stroke-linejoin:round; stroke-width:4; stroke-opacity:1; fill:none" points="725.013,1486.45 725.013,1467.55 "></polyline>
<polyline clip-path="url(#clip850)" style="stroke:#000000; stroke-linecap:round; stroke-linejoin:round; stroke-width:4; stroke-opacity:1; fill:none" points="1246.73,1486.45 1246.73,1467.55 "></polyline>
<polyline clip-path="url(#clip850)" style="stroke:#000000; stroke-linecap:round; stroke-linejoin:round; stroke-width:4; stroke-opacity:1; fill:none" points="1768.44,1486.45 1768.44,1467.55 "></polyline>
<polyline clip-path="url(#clip850)" style="stroke:#000000; stroke-linecap:round; stroke-linejoin:round; stroke-width:4; stroke-opacity:1; fill:none" points="2290.15,1486.45 2290.15,1467.55 "></polyline>
<path clip-path="url(#clip850)" d="M193.683 1544.91 L201.322 1544.91 L201.322 1518.55 L193.012 1520.21 L193.012 1515.95 L201.276 1514.29 L205.951 1514.29 L205.951 1544.91 L213.59 1544.91 L213.59 1548.85 L193.683 1548.85 L193.683 1544.91 Z" fill="#000000" fill-rule="nonzero" fill-opacity="1"></path><path clip-path="url(#clip850)" d="M719.666 1544.91 L735.986 1544.91 L735.986 1548.85 L714.041 1548.85 L714.041 1544.91 Q716.703 1542.16 721.287 1537.53 Q725.893 1532.88 727.074 1531.53 Q729.319 1529.01 730.199 1527.27 Q731.101 1525.51 731.101 1523.82 Q731.101 1521.07 729.157 1519.33 Q727.236 1517.6 724.134 1517.6 Q721.935 1517.6 719.481 1518.36 Q717.05 1519.13 714.273 1520.68 L714.273 1515.95 Q717.097 1514.82 719.55 1514.24 Q722.004 1513.66 724.041 1513.66 Q729.411 1513.66 732.606 1516.35 Q735.8 1519.03 735.8 1523.52 Q735.8 1525.65 734.99 1527.57 Q734.203 1529.47 732.097 1532.07 Q731.518 1532.74 728.416 1535.95 Q725.314 1539.15 719.666 1544.91 Z" fill="#000000" fill-rule="nonzero" fill-opacity="1"></path><path clip-path="url(#clip850)" d="M1250.97 1530.21 Q1254.33 1530.93 1256.2 1533.2 Q1258.1 1535.47 1258.1 1538.8 Q1258.1 1543.92 1254.58 1546.72 Q1251.07 1549.52 1244.58 1549.52 Q1242.41 1549.52 1240.09 1549.08 Q1237.8 1548.66 1235.35 1547.81 L1235.35 1543.29 Q1237.29 1544.43 1239.61 1545.01 Q1241.92 1545.58 1244.45 1545.58 Q1248.84 1545.58 1251.14 1543.85 Q1253.45 1542.11 1253.45 1538.8 Q1253.45 1535.75 1251.3 1534.03 Q1249.17 1532.3 1245.35 1532.3 L1241.32 1532.3 L1241.32 1528.45 L1245.53 1528.45 Q1248.98 1528.45 1250.81 1527.09 Q1252.64 1525.7 1252.64 1523.11 Q1252.64 1520.45 1250.74 1519.03 Q1248.87 1517.6 1245.35 1517.6 Q1243.43 1517.6 1241.23 1518.01 Q1239.03 1518.43 1236.39 1519.31 L1236.39 1515.14 Q1239.05 1514.4 1241.37 1514.03 Q1243.7 1513.66 1245.77 1513.66 Q1251.09 1513.66 1254.19 1516.09 Q1257.29 1518.5 1257.29 1522.62 Q1257.29 1525.49 1255.65 1527.48 Q1254.01 1529.45 1250.97 1530.21 Z" fill="#000000" fill-rule="nonzero" fill-opacity="1"></path><path clip-path="url(#clip850)" d="M1771.45 1518.36 L1759.64 1536.81 L1771.45 1536.81 L1771.45 1518.36 M1770.22 1514.29 L1776.1 1514.29 L1776.1 1536.81 L1781.03 1536.81 L1781.03 1540.7 L1776.1 1540.7 L1776.1 1548.85 L1771.45 1548.85 L1771.45 1540.7 L1755.85 1540.7 L1755.85 1536.19 L1770.22 1514.29 Z" fill="#000000" fill-rule="nonzero" fill-opacity="1"></path><path clip-path="url(#clip850)" d="M2280.43 1514.29 L2298.78 1514.29 L2298.78 1518.22 L2284.71 1518.22 L2284.71 1526.7 Q2285.73 1526.35 2286.75 1526.19 Q2287.77 1526 2288.78 1526 Q2294.57 1526 2297.95 1529.17 Q2301.33 1532.34 2301.33 1537.76 Q2301.33 1543.34 2297.86 1546.44 Q2294.39 1549.52 2288.07 1549.52 Q2285.89 1549.52 2283.62 1549.15 Q2281.38 1548.78 2278.97 1548.04 L2278.97 1543.34 Q2281.05 1544.47 2283.28 1545.03 Q2285.5 1545.58 2287.97 1545.58 Q2291.98 1545.58 2294.32 1543.48 Q2296.66 1541.37 2296.66 1537.76 Q2296.66 1534.15 2294.32 1532.04 Q2291.98 1529.94 2287.97 1529.94 Q2286.1 1529.94 2284.22 1530.35 Q2282.37 1530.77 2280.43 1531.65 L2280.43 1514.29 Z" fill="#000000" fill-rule="nonzero" fill-opacity="1"></path><polyline clip-path="url(#clip852)" style="stroke:#000000; stroke-linecap:round; stroke-linejoin:round; stroke-width:2; stroke-opacity:0.1; fill:none" points="140.696,1219.43 2352.76,1219.43 "></polyline>
<polyline clip-path="url(#clip852)" style="stroke:#000000; stroke-linecap:round; stroke-linejoin:round; stroke-width:2; stroke-opacity:0.1; fill:none" points="140.696,936.563 2352.76,936.563 "></polyline>
<polyline clip-path="url(#clip852)" style="stroke:#000000; stroke-linecap:round; stroke-linejoin:round; stroke-width:2; stroke-opacity:0.1; fill:none" points="140.696,653.701 2352.76,653.701 "></polyline>
<polyline clip-path="url(#clip852)" style="stroke:#000000; stroke-linecap:round; stroke-linejoin:round; stroke-width:2; stroke-opacity:0.1; fill:none" points="140.696,370.839 2352.76,370.839 "></polyline>
<polyline clip-path="url(#clip852)" style="stroke:#000000; stroke-linecap:round; stroke-linejoin:round; stroke-width:2; stroke-opacity:0.1; fill:none" points="140.696,87.9763 2352.76,87.9763 "></polyline>
<polyline clip-path="url(#clip850)" style="stroke:#000000; stroke-linecap:round; stroke-linejoin:round; stroke-width:4; stroke-opacity:1; fill:none" points="140.696,1486.45 140.696,47.2441 "></polyline>
<polyline clip-path="url(#clip850)" style="stroke:#000000; stroke-linecap:round; stroke-linejoin:round; stroke-width:4; stroke-opacity:1; fill:none" points="140.696,1219.43 159.593,1219.43 "></polyline>
<polyline clip-path="url(#clip850)" style="stroke:#000000; stroke-linecap:round; stroke-linejoin:round; stroke-width:4; stroke-opacity:1; fill:none" points="140.696,936.563 159.593,936.563 "></polyline>
<polyline clip-path="url(#clip850)" style="stroke:#000000; stroke-linecap:round; stroke-linejoin:round; stroke-width:4; stroke-opacity:1; fill:none" points="140.696,653.701 159.593,653.701 "></polyline>
<polyline clip-path="url(#clip850)" style="stroke:#000000; stroke-linecap:round; stroke-linejoin:round; stroke-width:4; stroke-opacity:1; fill:none" points="140.696,370.839 159.593,370.839 "></polyline>
<polyline clip-path="url(#clip850)" style="stroke:#000000; stroke-linecap:round; stroke-linejoin:round; stroke-width:4; stroke-opacity:1; fill:none" points="140.696,87.9763 159.593,87.9763 "></polyline>
<path clip-path="url(#clip850)" d="M83.7929 1202.15 L102.149 1202.15 L102.149 1206.08 L88.0753 1206.08 L88.0753 1214.55 Q89.0938 1214.21 90.1123 1214.04 Q91.1308 1213.86 92.1493 1213.86 Q97.9363 1213.86 101.316 1217.03 Q104.696 1220.2 104.696 1225.62 Q104.696 1231.2 101.223 1234.3 Q97.7511 1237.38 91.4317 1237.38 Q89.2558 1237.38 86.9873 1237.01 Q84.7419 1236.64 82.3346 1235.9 L82.3346 1231.2 Q84.4179 1232.33 86.6401 1232.89 Q88.8623 1233.44 91.3391 1233.44 Q95.3437 1233.44 97.6817 1231.34 Q100.02 1229.23 100.02 1225.62 Q100.02 1222.01 97.6817 1219.9 Q95.3437 1217.79 91.3391 1217.79 Q89.4641 1217.79 87.5892 1218.21 Q85.7373 1218.63 83.7929 1219.51 L83.7929 1202.15 Z" fill="#000000" fill-rule="nonzero" fill-opacity="1"></path><path clip-path="url(#clip850)" d="M53.3995 949.908 L61.0384 949.908 L61.0384 923.543 L52.7282 925.209 L52.7282 920.95 L60.9921 919.283 L65.668 919.283 L65.668 949.908 L73.3068 949.908 L73.3068 953.843 L53.3995 953.843 L53.3995 949.908 Z" fill="#000000" fill-rule="nonzero" fill-opacity="1"></path><path clip-path="url(#clip850)" d="M92.7512 922.362 Q89.1401 922.362 87.3114 925.927 Q85.5058 929.469 85.5058 936.598 Q85.5058 943.705 87.3114 947.269 Q89.1401 950.811 92.7512 950.811 Q96.3854 950.811 98.1909 947.269 Q100.02 943.705 100.02 936.598 Q100.02 929.469 98.1909 925.927 Q96.3854 922.362 92.7512 922.362 M92.7512 918.658 Q98.5613 918.658 101.617 923.265 Q104.696 927.848 104.696 936.598 Q104.696 945.325 101.617 949.931 Q98.5613 954.515 92.7512 954.515 Q86.941 954.515 83.8623 949.931 Q80.8068 945.325 80.8068 936.598 Q80.8068 927.848 83.8623 923.265 Q86.941 918.658 92.7512 918.658 Z" fill="#000000" fill-rule="nonzero" fill-opacity="1"></path><path clip-path="url(#clip850)" d="M54.3949 667.046 L62.0337 667.046 L62.0337 640.68 L53.7236 642.347 L53.7236 638.088 L61.9874 636.421 L66.6633 636.421 L66.6633 667.046 L74.3022 667.046 L74.3022 670.981 L54.3949 670.981 L54.3949 667.046 Z" fill="#000000" fill-rule="nonzero" fill-opacity="1"></path><path clip-path="url(#clip850)" d="M83.7929 636.421 L102.149 636.421 L102.149 640.356 L88.0753 640.356 L88.0753 648.828 Q89.0938 648.481 90.1123 648.319 Q91.1308 648.134 92.1493 648.134 Q97.9363 648.134 101.316 651.305 Q104.696 654.476 104.696 659.893 Q104.696 665.472 101.223 668.574 Q97.7511 671.652 91.4317 671.652 Q89.2558 671.652 86.9873 671.282 Q84.7419 670.912 82.3346 670.171 L82.3346 665.472 Q84.4179 666.606 86.6401 667.162 Q88.8623 667.717 91.3391 667.717 Q95.3437 667.717 97.6817 665.611 Q100.02 663.504 100.02 659.893 Q100.02 656.282 97.6817 654.176 Q95.3437 652.069 91.3391 652.069 Q89.4641 652.069 87.5892 652.486 Q85.7373 652.902 83.7929 653.782 L83.7929 636.421 Z" fill="#000000" fill-rule="nonzero" fill-opacity="1"></path><path clip-path="url(#clip850)" d="M56.6171 384.183 L72.9365 384.183 L72.9365 388.119 L50.9921 388.119 L50.9921 384.183 Q53.6541 381.429 58.2375 376.799 Q62.8439 372.147 64.0245 370.804 Q66.2698 368.281 67.1494 366.545 Q68.0522 364.785 68.0522 363.096 Q68.0522 360.341 66.1078 358.605 Q64.1865 356.869 61.0847 356.869 Q58.8856 356.869 56.4319 357.633 Q54.0014 358.397 51.2236 359.948 L51.2236 355.225 Q54.0477 354.091 56.5014 353.512 Q58.955 352.934 60.9921 352.934 Q66.3624 352.934 69.5568 355.619 Q72.7513 358.304 72.7513 362.795 Q72.7513 364.924 71.9411 366.846 Q71.1541 368.744 69.0476 371.336 Q68.4689 372.008 65.367 375.225 Q62.2652 378.42 56.6171 384.183 Z" fill="#000000" fill-rule="nonzero" fill-opacity="1"></path><path clip-path="url(#clip850)" d="M92.7512 356.637 Q89.1401 356.637 87.3114 360.202 Q85.5058 363.744 85.5058 370.873 Q85.5058 377.98 87.3114 381.545 Q89.1401 385.086 92.7512 385.086 Q96.3854 385.086 98.1909 381.545 Q100.02 377.98 100.02 370.873 Q100.02 363.744 98.1909 360.202 Q96.3854 356.637 92.7512 356.637 M92.7512 352.934 Q98.5613 352.934 101.617 357.54 Q104.696 362.123 104.696 370.873 Q104.696 379.6 101.617 384.207 Q98.5613 388.79 92.7512 388.79 Q86.941 388.79 83.8623 384.207 Q80.8068 379.6 80.8068 370.873 Q80.8068 362.123 83.8623 357.54 Q86.941 352.934 92.7512 352.934 Z" fill="#000000" fill-rule="nonzero" fill-opacity="1"></path><path clip-path="url(#clip850)" d="M57.6125 101.321 L73.9318 101.321 L73.9318 105.256 L51.9875 105.256 L51.9875 101.321 Q54.6495 98.5665 59.2328 93.9369 Q63.8393 89.2841 65.0198 87.9416 Q67.2652 85.4184 68.1448 83.6823 Q69.0476 81.9231 69.0476 80.2333 Q69.0476 77.4786 67.1032 75.7425 Q65.1819 74.0064 62.08 74.0064 Q59.881 74.0064 57.4273 74.7703 Q54.9967 75.5342 52.219 77.0851 L52.219 72.3629 Q55.043 71.2287 57.4967 70.65 Q59.9504 70.0713 61.9874 70.0713 Q67.3578 70.0713 70.5522 72.7565 Q73.7466 75.4416 73.7466 79.9323 Q73.7466 82.062 72.9365 83.9832 Q72.1494 85.8814 70.0429 88.474 Q69.4642 89.1453 66.3624 92.3628 Q63.2606 95.5573 57.6125 101.321 Z" fill="#000000" fill-rule="nonzero" fill-opacity="1"></path><path clip-path="url(#clip850)" d="M83.7929 70.6963 L102.149 70.6963 L102.149 74.6314 L88.0753 74.6314 L88.0753 83.1036 Q89.0938 82.7564 90.1123 82.5944 Q91.1308 82.4092 92.1493 82.4092 Q97.9363 82.4092 101.316 85.5805 Q104.696 88.7517 104.696 94.1684 Q104.696 99.747 101.223 102.849 Q97.7511 105.928 91.4317 105.928 Q89.2558 105.928 86.9873 105.557 Q84.7419 105.187 82.3346 104.446 L82.3346 99.747 Q84.4179 100.881 86.6401 101.437 Q88.8623 101.992 91.3391 101.992 Q95.3437 101.992 97.6817 99.8859 Q100.02 97.7795 100.02 94.1684 Q100.02 90.5573 97.6817 88.4508 Q95.3437 86.3443 91.3391 86.3443 Q89.4641 86.3443 87.5892 86.761 Q85.7373 87.1777 83.7929 88.0573 L83.7929 70.6963 Z" fill="#000000" fill-rule="nonzero" fill-opacity="1"></path><polyline clip-path="url(#clip852)" style="stroke:#009af9; stroke-linecap:round; stroke-linejoin:round; stroke-width:4; stroke-opacity:1; fill:none" points="203.301,1445.72 725.013,1276 1246.73,993.136 1768.44,597.129 2290.15,87.9763 "></polyline>
<path clip-path="url(#clip850)" d="M214.431 198.898 L488.067 198.898 L488.067 95.2176 L214.431 95.2176  Z" fill="#ffffff" fill-rule="evenodd" fill-opacity="1"></path>
<polyline clip-path="url(#clip850)" style="stroke:#000000; stroke-linecap:round; stroke-linejoin:round; stroke-width:4; stroke-opacity:1; fill:none" points="214.431,198.898 488.067,198.898 488.067,95.2176 214.431,95.2176 214.431,198.898 "></polyline>
<polyline clip-path="url(#clip850)" style="stroke:#009af9; stroke-linecap:round; stroke-linejoin:round; stroke-width:4; stroke-opacity:1; fill:none" points="239.009,147.058 386.48,147.058 "></polyline>
<path clip-path="url(#clip850)" d="M424.901 166.745 Q423.095 171.375 421.382 172.787 Q419.67 174.199 416.799 174.199 L413.396 174.199 L413.396 170.634 L415.896 170.634 Q417.656 170.634 418.628 169.8 Q419.6 168.967 420.781 165.865 L421.545 163.921 L411.058 138.412 L415.572 138.412 L423.674 158.689 L431.776 138.412 L436.29 138.412 L424.901 166.745 Z" fill="#000000" fill-rule="nonzero" fill-opacity="1"></path><path clip-path="url(#clip850)" d="M443.581 160.402 L451.22 160.402 L451.22 134.037 L442.91 135.703 L442.91 131.444 L451.174 129.778 L455.85 129.778 L455.85 160.402 L463.489 160.402 L463.489 164.338 L443.581 164.338 L443.581 160.402 Z" fill="#000000" fill-rule="nonzero" fill-opacity="1"></path></svg>